<?xml version="1.0" standalone="no"?>
<!DOCTYPE svg PUBLIC "-//W3C//DTD SVG 20010904//EN"
 "http://www.w3.org/TR/2001/REC-SVG-20010904/DTD/svg10.dtd">
<svg version="1.0" xmlns="http://www.w3.org/2000/svg"
 width="7500.000000pt" height="5000.000000pt" viewBox="0 0 7500.000000 5000.000000"
 preserveAspectRatio="xMidYMid meet">

<g transform="translate(0.000000,5000.000000) scale(0.100000,-0.100000)"
fill="#000000" stroke="none">
<path d="M41307 43034 c-1 -1 -31 -5 -66 -8 -122 -13 -367 -82 -521 -148 -114
-48 -429 -209 -545 -278 -512 -306 -1142 -792 -1835 -1415 -736 -662 -1744
-1677 -2908 -2927 l-277 -297 -332 0 c-183 -1 -333 2 -333 5 0 3 65 108 144
233 353 555 532 862 681 1166 57 116 120 255 140 310 121 325 114 518 -19 600
-44 27 -59 30 -151 33 -120 5 -213 -11 -380 -65 -749 -241 -1772 -947 -3037
-2095 l-207 -188 -1595 0 -1594 0 -21 -35 c-34 -59 -62 -65 -300 -65 l-210 0
-5 -32 c-3 -18 -10 -73 -17 -123 -24 -186 -95 -417 -185 -598 -24 -49 -44 -90
-44 -93 0 -2 6121 -4 13603 -4 l13602 0 80 -28 c180 -63 309 -193 377 -382
l23 -65 0 -1075 0 -1075 -465 0 -465 0 -50 75 c-27 42 -84 127 -125 190 -130
199 -250 307 -389 351 -51 16 -94 20 -191 21 -148 0 -235 -14 -490 -82 -495
-131 -467 -128 -1060 -104 -232 9 -286 -7 -418 -127 -94 -86 -131 -109 -247
-149 -104 -37 -192 -83 -264 -140 l-50 -40 -2328 -2 -2328 -3 -40 -23 c-54
-32 -92 -73 -118 -130 l-22 -47 0 -735 c0 -820 -5 -766 72 -850 21 -24 58 -53
83 -64 l45 -21 2486 -3 2486 -2 7 52 c7 50 36 201 51 260 l7 28 -2384 2 -2385
3 -41 29 c-26 18 -51 47 -67 79 l-25 51 0 429 c0 311 3 441 12 471 18 58 82
120 140 134 35 9 571 12 2112 12 l2066 0 0 -111 c0 -60 5 -142 12 -181 11 -66
10 -72 -8 -85 -18 -13 -19 -11 -24 61 -4 65 -9 79 -31 102 -47 47 -136 29
-159 -32 -6 -14 -10 -52 -10 -85 0 -32 -2 -59 -5 -59 -3 0 -29 16 -58 35 -81
55 -155 41 -178 -34 -16 -55 2 -86 82 -141 36 -25 66 -49 66 -55 0 -5 -28 -29
-61 -53 -76 -53 -86 -66 -86 -115 0 -29 7 -45 29 -68 41 -40 82 -39 148 6 29
19 55 35 58 35 3 0 5 -30 5 -66 0 -62 2 -68 34 -100 37 -37 70 -43 115 -20 37
20 51 55 51 132 l0 66 33 -22 c17 -12 51 -30 74 -41 40 -19 44 -19 80 -2 21 9
41 17 44 17 3 1 40 -44 82 -100 121 -160 251 -270 352 -295 35 -9 63 -9 115 0
101 16 162 42 311 131 178 107 192 111 369 108 l145 -3 65 32 c36 18 130 84
210 148 160 128 207 155 266 155 65 0 92 -39 121 -171 45 -211 5 -880 -68
-1147 -20 -71 -20 -74 -2 -110 22 -45 103 -89 179 -98 l51 -6 17 88 c27 136
63 273 100 381 19 54 39 131 46 172 27 160 147 322 275 370 157 59 296 -5 349
-162 18 -54 21 -188 5 -257 -18 -80 -75 -184 -134 -243 -30 -31 -55 -59 -55
-63 0 -17 109 -160 160 -209 47 -44 91 -71 212 -130 84 -41 154 -73 155 -71 2
1 14 63 28 137 45 237 54 281 92 447 l36 162 342 0 342 0 6 -467 c4 -256 7
-732 7 -1058 l0 -591 61 -79 c87 -113 274 -398 355 -540 54 -96 90 -144 179
-240 137 -148 278 -311 384 -445 l81 -102 2 948 3 949 85 12 c175 25 332 36
553 37 l229 2 225 399 c124 220 230 405 236 412 9 9 44 7 157 -13 226 -38 670
-152 670 -172 0 -4 7 -113 15 -242 8 -129 17 -289 20 -355 3 -66 8 -145 10
-175 2 -30 5 -81 6 -114 2 -56 4 -59 37 -73 256 -107 576 -294 824 -482 59
-44 110 -81 113 -81 4 0 200 89 437 197 l430 197 55 -57 c31 -32 59 -57 63
-55 14 6 234 255 354 402 666 815 1160 1727 1355 2503 77 307 107 557 98 813
-6 182 -13 223 -87 550 -96 420 -138 735 -126 927 21 306 117 518 341 752 239
250 590 492 1370 946 430 250 568 347 716 502 89 93 130 151 169 237 193 426
-220 815 -1143 1076 -253 72 -540 123 -784 139 -173 12 -703 -2 -908 -24 -776
-82 -1358 -339 -1831 -810 -165 -164 -272 -295 -402 -495 -52 -80 -114 -175
-139 -212 -54 -82 -171 -200 -277 -281 -412 -314 -1154 -583 -2171 -786 -258
-52 -650 -121 -685 -121 -19 0 -19 13 -22 503 -3 487 -4 504 -25 567 -71 206
-243 371 -458 437 -58 17 -349 18 -8209 20 l-8149 3 279 283 c461 466 765 797
1070 1162 770 923 1210 1678 1340 2301 23 113 27 153 27 319 1 164 -2 202 -21
279 -70 278 -247 518 -473 640 -109 58 -226 86 -378 90 -72 1 -132 1 -134 0z
m17630 -8999 c60 -18 116 -73 133 -132 8 -26 10 -177 8 -485 l-3 -446 -30 -43
c-17 -24 -50 -53 -75 -66 l-45 -23 -2068 2 -2068 3 43 83 c24 46 68 112 98
147 l55 64 324 0 c287 1 327 3 343 18 24 21 23 68 -2 93 -19 19 -33 20 -318
20 l-299 0 9 58 c21 122 -11 344 -70 492 -31 78 -95 194 -112 205 -6 3 -10 10
-10 16 0 5 764 9 2018 9 1768 0 2025 -2 2069 -15z m-7844 -575 c4 -17 2 -18
-14 -9 -20 10 -24 21 -13 32 10 10 21 0 27 -23z"/>
<path d="M56150 33250 c-24 -24 -26 -57 -4 -88 l15 -22 454 0 454 0 15 22 c22
32 20 61 -7 86 -23 22 -25 22 -465 22 -429 0 -443 -1 -462 -20z"/>
<path d="M57510 33250 c-24 -24 -26 -57 -4 -88 l15 -22 454 0 454 0 15 22 c22
32 20 61 -7 86 -23 22 -25 22 -465 22 -429 0 -443 -1 -462 -20z"/>
<path d="M49324 42121 c-52 -24 -90 -73 -103 -133 -20 -88 17 -176 91 -218 43
-25 44 -25 343 -28 290 -3 301 -4 322 -24 l23 -21 0 -636 c0 -350 -3 -646 -6
-658 l-6 -23 -629 0 -629 0 0 328 0 329 -26 24 c-44 40 -148 170 -202 251 -49
72 -103 173 -154 283 l-23 50 -5 -642 -5 -642 -46 -31 c-51 -33 -94 -88 -115
-147 -10 -31 -13 -172 -14 -719 0 -767 -3 -735 76 -823 26 -29 65 -58 96 -72
l53 -24 980 0 980 0 57 28 c61 30 105 74 140 140 l23 42 3 684 c3 798 7 757
-89 853 l-59 60 0 692 c0 751 0 747 -56 858 -52 103 -178 200 -295 227 -25 6
-184 11 -364 11 -291 0 -324 -2 -361 -19z m121 -2235 c91 -43 144 -126 145
-227 0 -68 -37 -148 -86 -185 l-34 -26 0 -170 c0 -184 -6 -210 -57 -243 -38
-25 -105 -25 -140 1 -55 40 -63 72 -63 252 l0 163 -34 29 c-72 63 -98 184 -61
278 20 49 98 124 147 139 58 19 129 15 183 -11z"/>
<path d="M19904 41389 c-164 -228 -316 -439 -337 -469 -20 -30 -47 -68 -60
-84 l-23 -28 -99 16 c-229 36 -775 72 -775 51 0 -4 8 -14 18 -21 16 -12 16
-13 -4 -14 -16 0 -23 -8 -27 -27 -6 -32 9 -55 19 -30 3 9 9 17 13 17 11 0 33
-60 27 -76 -3 -9 3 -27 14 -41 26 -34 25 -43 -5 -43 -22 0 -25 4 -25 40 l0 40
-40 0 c-22 0 -40 -3 -40 -7 0 -22 42 -73 60 -73 17 0 20 -7 20 -40 l0 -40 50
0 c28 0 50 5 50 10 0 6 -4 10 -10 10 -5 0 -10 7 -10 15 0 9 -6 18 -14 21 -10
4 -12 17 -8 49 3 34 0 50 -17 73 -27 38 -28 53 -1 21 11 -13 24 -29 30 -36 5
-7 10 -15 10 -18 0 -4 7 -13 15 -21 10 -11 13 -27 8 -59 -4 -31 -2 -45 6 -45
6 0 11 15 12 33 0 31 1 31 10 7 6 -13 15 -28 22 -32 8 -5 6 -8 -6 -8 -10 0
-26 -7 -35 -16 -15 -15 -14 -18 11 -36 15 -11 27 -27 28 -36 0 -14 2 -13 8 2
5 14 10 16 15 8 4 -7 0 -19 -8 -28 -9 -8 -16 -11 -16 -5 0 6 -16 11 -35 11
-30 0 -35 -3 -35 -22 1 -27 20 -55 40 -58 30 -5 40 1 40 20 0 14 7 20 21 20
22 0 22 6 3 70 -7 22 -6 24 9 11 9 -7 17 -23 17 -34 0 -11 8 -26 18 -33 16
-12 16 -13 -4 -14 -16 0 -23 -8 -27 -27 -6 -32 9 -55 19 -30 3 9 9 17 13 17
11 0 33 -60 27 -76 -3 -9 3 -27 14 -41 26 -34 25 -43 -5 -43 -22 0 -25 4 -25
40 l0 40 -40 0 c-22 0 -40 -3 -40 -7 0 -22 42 -73 60 -73 17 0 20 -7 20 -40
l0 -40 50 0 c28 0 50 2 50 5 0 3 -9 15 -20 27 -14 16 -20 36 -20 72 0 35 -7
59 -20 76 -26 33 -26 50 0 19 11 -13 24 -29 30 -36 5 -7 10 -15 10 -18 0 -4 7
-13 15 -21 10 -11 13 -27 8 -59 -4 -31 -2 -45 6 -45 6 0 11 15 12 33 0 31 1
31 10 7 6 -13 15 -28 22 -32 8 -5 6 -8 -6 -8 -10 0 -26 -7 -35 -16 -15 -15
-14 -18 11 -36 15 -11 27 -27 28 -36 0 -14 2 -13 8 2 5 14 10 16 15 8 4 -7 0
-19 -8 -28 -9 -8 -16 -11 -16 -5 0 6 -16 11 -35 11 -30 0 -35 -3 -35 -22 1
-33 23 -58 54 -58 19 0 26 5 26 20 0 14 7 20 21 20 22 0 22 6 3 70 -7 22 -6
24 9 11 9 -7 17 -23 17 -34 0 -11 8 -26 18 -33 16 -12 16 -13 -4 -14 -16 0
-23 -8 -27 -27 -7 -37 3 -50 19 -28 8 10 15 17 16 14 43 -70 40 -82 -26 -77
l-55 3 22 -40 c14 -25 31 -41 45 -43 18 -3 22 -10 22 -43 0 -39 0 -39 40 -39
33 0 40 3 40 19 0 11 -4 23 -10 26 -16 10 -12 35 5 35 11 0 14 7 9 25 -4 14
-2 25 4 25 16 0 19 -20 14 -86 -4 -56 -3 -61 22 -77 14 -10 26 -25 27 -35 0
-15 1 -14 8 2 6 15 10 16 16 7 4 -8 2 -16 -5 -21 -10 -6 -9 -13 4 -31 9 -13
16 -33 16 -46 0 -27 18 -40 26 -19 9 23 17 20 32 -11 22 -49 17 -55 -42 -51
l-55 3 22 -40 c14 -25 31 -41 45 -43 18 -3 22 -10 22 -43 0 -39 0 -39 40 -39
33 0 40 3 40 19 0 11 -4 23 -10 26 -16 10 -12 35 6 35 11 0 14 6 9 21 -6 16
-3 20 11 17 10 -2 23 -20 32 -45 7 -24 18 -43 23 -43 5 0 9 -9 9 -19 0 -14 -5
-18 -20 -14 -16 4 -20 14 -20 44 0 22 -4 39 -10 39 -5 0 -10 -22 -10 -49 0
-41 4 -51 25 -65 14 -9 25 -24 26 -34 0 -15 1 -14 8 2 5 14 10 16 15 8 4 -7 0
-19 -8 -28 -9 -8 -16 -11 -16 -5 0 6 -16 11 -35 11 -30 0 -35 -3 -35 -22 1
-33 23 -58 54 -58 19 0 26 5 26 20 0 14 7 20 21 20 18 0 21 -4 16 -30 -7 -31
9 -52 19 -26 9 23 17 20 32 -11 22 -49 17 -55 -42 -51 l-55 3 22 -40 c14 -25
31 -41 45 -43 18 -3 22 -10 22 -43 0 -39 0 -39 40 -39 33 0 40 3 40 19 0 11
-4 23 -10 26 -18 11 -11 35 10 35 17 0 20 -7 20 -49 0 -41 4 -51 25 -65 14 -9
25 -24 26 -34 0 -15 1 -14 8 2 5 14 10 16 15 8 4 -7 0 -19 -8 -28 -9 -8 -16
-11 -16 -5 0 6 -16 11 -35 11 -30 0 -35 -3 -35 -22 1 -33 23 -58 54 -58 19 0
26 5 26 20 0 14 7 20 21 20 18 0 21 -4 16 -30 -7 -31 9 -52 19 -26 9 23 17 20
32 -11 22 -49 17 -55 -42 -51 l-55 3 22 -40 c14 -25 31 -41 45 -43 18 -3 22
-10 22 -43 0 -39 0 -39 40 -39 33 0 40 3 40 19 0 11 -4 23 -10 26 -18 11 -11
35 10 35 17 0 20 -7 20 -49 0 -41 4 -51 25 -65 14 -9 25 -24 26 -34 0 -15 1
-14 8 2 5 14 10 16 15 8 4 -7 0 -19 -8 -28 -9 -8 -16 -11 -16 -5 0 6 -16 11
-35 11 -30 0 -35 -3 -35 -22 1 -33 23 -58 54 -58 19 0 26 5 26 20 0 14 7 20
21 20 18 0 21 -4 16 -30 -7 -31 9 -52 19 -26 9 23 17 20 32 -11 22 -49 17 -55
-42 -51 l-55 3 22 -40 c14 -25 31 -41 45 -43 18 -3 22 -10 22 -42 0 -37 1 -38
40 -42 36 -3 40 -1 40 19 0 12 -4 25 -10 28 -18 11 -11 35 10 35 17 0 20 -7
20 -49 0 -41 4 -51 25 -65 14 -9 25 -24 26 -34 0 -15 1 -14 8 2 5 14 10 16 15
8 4 -7 0 -19 -8 -28 -9 -8 -16 -11 -16 -5 0 6 -16 11 -36 11 -35 0 -36 -1 -30
-27 4 -16 8 -36 9 -45 1 -15 11 -18 55 -18 33 0 51 -4 47 -10 -8 -13 31 -13
57 1 14 8 23 8 31 0 14 -14 55 -12 -653 -20 -533 -6 -633 -9 -680 -23 -228
-68 -380 -212 -462 -438 l-23 -65 -5 -4804 -5 -4803 -85 74 c-303 264 -849
706 -1240 1003 -349 265 -414 319 -535 440 -125 125 -232 248 -355 409 l-85
111 -114 49 -114 50 7 106 7 106 -129 214 c-227 379 -470 845 -672 1293 l-85
187 -105 105 -106 105 -584 -190 -585 -191 -33 38 c-66 74 -261 340 -358 488
-97 146 -231 366 -227 373 1 2 175 217 387 477 l385 474 -41 93 c-110 254
-203 529 -272 809 -43 171 -96 437 -96 478 0 14 -108 52 -584 206 -536 173
-585 191 -591 213 -10 39 -6 647 5 787 21 277 21 276 44 284 12 5 264 72 561
151 297 79 544 146 548 150 9 8 -80 366 -120 480 -122 349 -355 702 -695 1050
-77 80 -243 233 -293 271 -17 13 -46 37 -66 53 -94 81 -196 154 -354 258 -360
234 -739 399 -1050 454 -120 22 -319 22 -409 0 -297 -71 -439 -328 -397 -721
25 -233 69 -383 291 -995 404 -1116 611 -1834 686 -2380 24 -175 24 -472 0
-604 -62 -343 -227 -582 -531 -766 -90 -54 -112 -75 -140 -130 -84 -168 -115
-474 -95 -939 6 -146 13 -273 15 -281 5 -16 285 -214 578 -409 858 -572 2377
-1501 4192 -2566 242 -142 517 -303 610 -358 94 -55 211 -123 260 -152 50 -29
171 -99 270 -157 99 -58 389 -226 645 -373 691 -398 882 -510 1015 -593 151
-94 420 -276 548 -370 l97 -72 0 -2585 0 -2584 -342 -3 -343 -3 -50 -27 c-60
-31 -105 -77 -136 -138 -21 -40 -24 -62 -27 -197 -2 -86 -8 -150 -13 -147 -5
3 -9 -4 -9 -15 0 -12 -4 -21 -9 -21 -6 0 -7 -16 -4 -34 3 -19 3 -46 -1 -60
l-6 -26 -240 7 -240 6 0 -23 0 -23 244 4 c134 2 242 7 239 12 -2 4 2 7 10 7
10 0 13 14 11 58 l-3 57 9 -50 c4 -27 9 -62 9 -76 l1 -26 -100 5 c-71 3 -100
1 -100 -7 0 -7 28 -11 85 -11 l85 0 0 -44 c0 -25 -5 -48 -11 -52 -21 -13 -590
-26 -659 -15 l-65 10 68 -5 c98 -7 577 8 577 18 0 11 -954 -1 -958 -13 -2 -5
-57 -9 -123 -9 -83 0 -119 -3 -119 -11 0 -9 43 -10 160 -6 93 3 160 1 160 -4
0 -5 -71 -9 -159 -9 -88 0 -161 -4 -163 -9 -2 -5 -190 -12 -438 -15 -239 -4
-527 -11 -640 -16 -113 -5 -329 -11 -480 -13 l-275 -5 318 10 c174 6 317 13
317 17 0 3 -288 6 -640 6 l-640 0 0 -37 0 -38 -112 0 c-62 0 -313 -5 -558 -11
-313 -7 -446 -7 -448 0 -5 14 -322 15 -322 1 0 -6 49 -11 123 -12 102 -2 109
-3 42 -6 -44 -2 -134 1 -200 7 -66 6 -156 13 -200 16 -44 3 -82 10 -83 15 -2
6 -7 8 -11 6 -4 -3 -7 4 -7 14 0 10 3 17 7 14 4 -2 7 21 7 52 0 50 -8 65 -15
29 -2 -8 -4 -22 -6 -30 -2 -8 -7 -18 -12 -22 -4 -5 -5 -2 0 6 6 11 4 13 -9 8
-9 -4 -14 -3 -11 2 3 5 1 12 -5 16 -13 8 -13 25 1 25 5 0 7 -4 4 -10 -3 -5 -2
-10 3 -10 5 0 12 12 15 26 3 17 1 22 -6 15 -13 -13 -37 11 -37 38 0 13 -6 21
-16 21 -10 0 -14 5 -10 16 3 8 2 12 -4 9 -9 -5 -12 8 -9 31 0 4 -4 10 -9 13
-9 5 -72 151 -76 176 -1 6 -4 15 -8 20 -12 19 -159 409 -240 635 -136 379
-334 988 -408 1247 -20 72 -25 79 -195 273 -1152 1314 -2345 2193 -3465 2555
-420 135 -825 198 -1034 162 -49 -9 -93 -14 -98 -11 -4 3 -8 1 -8 -4 0 -4 -17
-16 -37 -26 -74 -35 -121 -72 -159 -123 -21 -29 -42 -49 -47 -46 -6 3 -7 1 -4
-4 6 -9 -31 -131 -43 -143 -16 -16 -15 -329 2 -426 13 -72 12 -81 -1 -76 -10
4 -13 1 -8 -11 7 -19 -4 -22 -20 -6 -17 17 -23 -4 -7 -26 11 -15 17 -17 23 -7
11 19 40 4 36 -19 -2 -10 0 -19 5 -19 5 0 7 -18 5 -40 -3 -27 0 -40 8 -40 7 0
14 -11 15 -25 1 -13 2 -28 3 -32 4 -23 -2 -43 -12 -40 -6 1 -14 -5 -16 -13 -4
-13 -3 -13 6 0 6 8 11 11 11 6 0 -5 8 -2 17 5 15 12 16 12 10 -3 -3 -10 -2
-18 2 -18 5 0 8 -8 6 -17 -1 -10 1 -22 5 -28 17 -22 39 -86 27 -78 -7 4 -7 0
2 -10 11 -14 11 -20 1 -32 -11 -13 -10 -14 3 -9 12 4 14 0 10 -18 -3 -16 -2
-19 5 -10 7 11 11 7 17 -15 5 -15 7 -34 6 -40 -1 -7 3 -13 9 -13 6 0 9 -4 5
-9 -3 -5 0 -13 6 -16 5 -4 8 -13 5 -21 -3 -8 -1 -14 5 -14 6 0 7 -4 4 -10 -3
-5 -2 -10 3 -10 9 0 22 -29 26 -55 1 -5 7 -20 14 -32 9 -16 9 -24 0 -29 -6 -4
-8 -3 -4 4 3 6 3 13 -2 16 -4 2 -9 -4 -9 -15 -1 -15 3 -19 16 -14 14 4 21 -2
30 -26 6 -17 8 -36 4 -42 -3 -6 -1 -7 5 -3 7 4 12 4 13 -1 0 -4 2 -18 5 -30 3
-16 0 -21 -10 -17 -10 4 -13 0 -11 -13 2 -10 4 -22 5 -28 0 -5 5 -2 11 8 11
19 29 23 29 6 0 -5 13 -37 30 -71 16 -33 30 -65 30 -72 0 -6 18 -46 39 -88 22
-43 34 -78 28 -78 -7 0 -7 -4 1 -12 7 -7 12 -17 12 -22 0 -6 -5 -4 -11 4 -9
13 -10 13 -6 -1 3 -9 1 -21 -3 -25 -5 -5 -5 -15 1 -24 9 -13 10 -13 6 2 -3 9
3 24 14 34 20 18 22 17 23 -36 1 -16 6 -24 15 -22 10 2 12 -5 9 -23 -5 -22 -3
-23 10 -13 13 10 14 10 8 1 -4 -8 -2 -13 6 -13 10 0 10 -2 -1 -9 -9 -6 -10
-11 -2 -15 6 -4 11 -13 11 -19 0 -7 -4 -6 -11 3 -9 13 -10 13 -6 -1 3 -9 1
-21 -3 -25 -5 -5 -5 -15 1 -24 9 -13 10 -13 6 2 -3 9 3 24 14 34 20 18 22 17
23 -36 1 -15 6 -24 14 -22 9 2 12 -6 10 -25 -2 -22 1 -27 14 -25 15 2 35 -31
30 -51 -2 -5 12 -25 29 -45 19 -21 27 -38 20 -40 -6 -2 -11 -8 -11 -13 0 -6 4
-8 9 -4 16 10 23 -15 9 -33 -12 -15 -11 -16 4 -3 15 11 19 11 24 -3 3 -9 3
-23 0 -32 -3 -8 -2 -13 3 -9 16 9 40 -23 34 -46 -4 -15 -3 -20 5 -15 7 4 16
-2 21 -17 6 -14 15 -28 21 -32 5 -3 8 -11 4 -16 -4 -7 -10 -7 -18 0 -8 7 -15
2 -23 -15 -10 -21 -9 -23 10 -20 12 1 23 8 25 14 2 7 8 12 13 12 4 0 5 -7 2
-17 -4 -10 -2 -14 4 -10 13 8 21 -10 18 -41 -1 -16 3 -21 12 -18 8 3 11 2 8
-3 -3 -6 1 -13 8 -18 25 -14 40 -53 27 -68 -9 -11 -7 -12 11 -8 15 4 20 3 15
-5 -4 -7 -3 -12 2 -12 6 0 15 -13 21 -30 9 -28 7 -34 -11 -31 -4 0 -5 -6 -2
-14 4 -11 11 -12 24 -5 13 7 19 6 23 -4 3 -8 -1 -17 -9 -20 -8 -3 -14 -11 -13
-18 0 -10 2 -10 6 0 2 6 11 12 19 12 9 0 12 -4 9 -10 -3 -5 4 -20 15 -32 12
-13 26 -31 32 -41 8 -16 7 -17 -11 -8 -25 14 -31 14 -31 1 0 -5 8 -10 17 -10
15 0 14 -2 -3 -15 -18 -14 -17 -15 7 -6 22 8 31 6 48 -13 11 -12 21 -26 21
-31 0 -5 8 -17 17 -28 13 -15 14 -18 3 -12 -26 16 -47 15 -26 -1 11 -8 16 -14
11 -14 -5 0 -4 -5 2 -11 6 -6 9 -19 6 -28 -4 -13 -3 -13 5 -2 6 8 8 20 5 28
-10 25 4 13 37 -34 19 -25 27 -43 19 -38 -8 4 -4 -3 9 -17 23 -26 21 -41 -6
-31 -10 4 -13 2 -8 -5 4 -7 16 -12 26 -12 28 0 30 -12 7 -35 -15 -15 -19 -16
-14 -4 3 9 0 16 -8 16 -10 0 -11 -5 -4 -19 12 -22 25 -23 33 -1 6 14 11 12 36
-12 16 -16 28 -31 25 -33 -2 -3 4 -17 15 -31 10 -15 18 -33 17 -41 -1 -8 0
-15 3 -15 3 0 13 -7 21 -15 17 -16 14 -44 -3 -34 -7 4 -7 0 0 -12 5 -11 8 -25
6 -32 -1 -7 0 -8 3 -2 3 6 13 2 24 -11 10 -12 19 -17 19 -11 0 7 5 12 12 12 6
0 8 -3 5 -6 -3 -4 3 -18 13 -32 11 -13 20 -31 20 -39 0 -8 5 -11 10 -8 6 4 10
3 9 -2 -3 -18 1 -34 9 -29 4 2 12 -7 19 -20 7 -16 8 -22 0 -17 -7 4 -8 0 -4
-13 7 -18 7 -18 -7 0 -14 18 -15 18 -13 -2 1 -20 12 -23 33 -9 7 4 18 -1 25
-10 10 -12 10 -14 2 -9 -8 4 -13 2 -14 -6 -1 -7 -3 -25 -5 -40 -1 -16 2 -28 7
-28 6 0 7 5 4 10 -3 6 0 10 7 10 10 0 10 2 1 8 -7 5 -9 13 -4 21 7 11 12 8 21
-10 7 -13 21 -32 32 -42 10 -10 16 -22 13 -28 -4 -5 -1 -9 5 -9 7 0 10 -7 6
-15 -3 -8 -1 -15 4 -15 6 0 10 -4 10 -10 0 -5 -6 -7 -13 -4 -15 5 -21 -32 -6
-41 5 -3 6 1 3 9 -4 10 -1 16 9 16 8 0 18 6 20 13 3 7 6 5 6 -5 1 -10 7 -18
14 -18 8 0 7 -3 -3 -9 -8 -6 -19 -7 -25 -4 -5 3 3 -6 20 -20 16 -14 33 -23 37
-21 3 2 4 -6 1 -18 -3 -13 -3 -20 2 -16 13 12 45 -28 43 -53 -2 -13 2 -24 8
-24 6 0 18 -8 28 -17 17 -17 10 -24 -17 -19 -5 1 -6 -3 -2 -8 3 -6 11 -8 18
-6 17 7 41 -11 33 -23 -4 -6 -13 -9 -21 -5 -8 3 -15 1 -16 -3 0 -5 -2 -17 -4
-26 -2 -14 3 -17 23 -16 37 2 49 10 27 18 -12 4 -15 9 -7 14 14 8 93 -110 85
-130 -3 -8 -10 -11 -17 -7 -6 4 -4 -2 4 -12 14 -17 13 -18 -2 -12 -15 5 -16 4
-5 -14 9 -15 13 -16 15 -5 2 9 10 13 20 9 13 -4 12 -2 -3 10 -11 9 -15 17 -9
17 17 0 37 -28 31 -44 -4 -10 0 -14 14 -11 10 2 19 0 19 -6 0 -19 3 -25 26
-52 13 -16 24 -32 24 -36 0 -4 8 -16 18 -27 35 -39 48 -58 33 -50 -9 6 -12 4
-9 -5 3 -8 11 -14 19 -14 8 0 14 -4 14 -10 0 -5 4 -16 9 -24 6 -10 5 -12 -2
-7 -7 4 -12 1 -12 -8 0 -8 6 -16 13 -19 9 -3 9 -7 -1 -19 -18 -22 0 -31 24
-13 13 10 14 14 4 12 -8 -2 -12 -2 -8 0 4 2 4 12 1 21 -4 10 3 6 14 -8 17 -20
19 -28 10 -39 -10 -12 -9 -14 5 -8 11 4 19 0 23 -12 3 -9 13 -26 23 -37 28
-30 64 -84 56 -84 -3 0 0 -8 7 -17 10 -11 10 -14 2 -9 -16 9 -17 -6 -1 -22 8
-8 8 -15 -1 -26 -17 -20 2 -28 25 -11 13 10 14 14 4 12 -8 -2 -12 -2 -8 0 4 2
4 12 1 21 -3 10 1 8 12 -6 9 -13 14 -30 11 -39 -4 -11 -2 -14 9 -9 9 3 15 0
15 -10 0 -8 4 -13 9 -10 4 3 13 -6 19 -19 7 -16 8 -26 1 -30 -5 -4 -6 -11 -3
-17 4 -7 9 -6 14 2 5 9 9 9 14 1 4 -6 2 -11 -4 -11 -7 0 9 -21 35 -46 26 -25
44 -48 41 -51 -3 -4 3 -12 13 -19 23 -17 34 -54 16 -54 -7 0 -16 7 -19 16 -4
9 -13 14 -21 10 -12 -4 -14 -2 -7 10 7 12 1 24 -22 46 -23 22 -27 31 -17 37 9
6 5 9 -12 8 -19 0 -24 -4 -20 -16 4 -11 1 -10 -10 4 -10 13 -12 25 -7 35 9 18
-23 45 -40 35 -6 -3 -8 0 -5 7 3 7 -8 27 -23 43 -16 17 -41 50 -57 73 -18 27
-34 41 -42 38 -8 -3 -12 -2 -8 3 3 5 -2 16 -10 24 -8 9 -15 19 -15 22 0 7 -13
22 -62 76 -10 10 -18 21 -18 24 0 8 -128 161 -187 223 -29 30 -53 58 -53 62 0
4 -17 26 -38 48 -39 42 -52 59 -80 106 -9 15 -36 46 -59 69 -24 22 -43 47 -43
55 0 8 -6 12 -14 9 -9 -4 -13 -1 -11 6 3 7 -11 30 -31 52 -20 22 -42 48 -50
59 -11 16 -16 17 -29 6 -9 -7 -15 -8 -15 -2 0 6 5 12 11 14 16 5 -7 48 -26 48
-7 0 -17 9 -20 21 -4 12 -14 29 -23 39 -10 10 -27 31 -39 47 -33 43 -76 96
-93 113 -8 9 -24 28 -35 44 -11 15 -44 52 -72 83 -29 30 -53 58 -53 61 0 4
-10 19 -23 33 -66 78 -93 113 -107 135 -8 14 -37 49 -65 78 -27 28 -70 80 -95
113 -34 47 -50 61 -65 58 -11 -3 -14 -2 -7 1 21 10 14 23 -52 88 -35 35 -67
74 -71 85 -3 12 -10 21 -14 21 -4 0 -16 16 -27 35 -10 19 -22 35 -26 35 -4 0
-21 20 -39 45 -18 25 -39 43 -45 41 -7 -3 -11 0 -8 7 2 7 -8 26 -24 42 -15 17
-39 46 -52 65 -13 19 -37 47 -52 62 -15 14 -28 29 -28 33 0 7 -13 22 -62 76
-10 10 -18 21 -18 25 0 7 -107 133 -181 213 -32 35 -59 67 -59 71 0 4 -17 26
-37 48 -40 42 -52 59 -81 105 -9 16 -36 49 -60 73 -23 25 -42 50 -42 56 0 5
-7 8 -14 5 -9 -4 -13 -1 -11 6 3 7 -11 30 -31 52 -20 22 -42 48 -50 59 -11 16
-16 17 -29 6 -9 -7 -15 -8 -15 -2 0 6 5 12 11 14 16 5 -7 48 -26 48 -7 0 -17
9 -20 21 -4 12 -14 29 -23 39 -10 10 -27 31 -39 47 -33 43 -76 96 -93 113 -8
9 -24 28 -35 44 -11 15 -44 52 -73 83 -28 30 -52 58 -52 61 0 4 -10 19 -23 33
-66 78 -93 113 -107 135 -8 14 -37 49 -65 78 -27 28 -70 80 -95 113 -35 48
-49 61 -65 57 -16 -4 -17 -3 -5 6 13 9 13 12 -3 21 -9 5 -17 14 -17 19 0 6
-22 32 -49 59 -27 27 -52 59 -56 70 -3 12 -10 21 -14 21 -4 0 -16 16 -27 35
-10 19 -22 35 -26 35 -4 0 -21 20 -39 45 -18 25 -39 43 -45 41 -7 -3 -11 0 -8
7 2 7 -8 26 -24 42 -15 17 -39 46 -52 65 -13 19 -37 47 -52 62 -15 14 -28 29
-28 33 0 7 -13 22 -62 76 -10 10 -18 21 -18 25 0 7 -107 133 -181 213 -32 35
-59 67 -59 71 0 4 -17 26 -37 48 -40 42 -52 59 -81 105 -9 16 -36 49 -59 73
-24 25 -43 50 -43 56 0 5 -7 8 -14 5 -9 -4 -13 -1 -10 6 2 7 -14 31 -36 55
-22 23 -40 46 -40 52 0 5 -6 13 -14 17 -7 4 -18 18 -25 31 -6 12 -18 22 -26
22 -7 0 -17 9 -20 21 -4 12 -14 29 -23 39 -10 10 -27 31 -39 47 -33 43 -76 96
-93 113 -8 9 -24 28 -35 44 -11 15 -44 52 -72 83 -29 30 -53 58 -53 62 0 5
-14 22 -30 39 -17 18 -30 34 -30 36 0 3 -13 19 -29 36 -16 18 -34 42 -41 54
-6 13 -37 50 -68 83 -32 34 -75 86 -97 117 -31 43 -44 54 -60 50 -16 -4 -17
-3 -5 6 13 9 13 12 -2 21 -10 5 -18 14 -18 19 0 6 -22 32 -50 60 -27 28 -50
54 -50 58 -1 4 -14 23 -30 42 -17 19 -30 40 -30 47 0 7 -4 13 -9 13 -6 0 -24
20 -42 45 -18 25 -39 43 -45 41 -7 -3 -11 0 -8 7 2 7 -9 26 -26 44 -16 18 -30
34 -30 37 0 2 -12 18 -28 35 -56 61 -72 80 -72 87 0 6 -13 22 -63 75 -9 10
-17 22 -17 27 0 4 -22 30 -48 57 -26 28 -56 63 -67 79 -11 15 -44 52 -73 83
-28 30 -52 58 -52 61 0 4 -10 19 -23 33 -69 82 -93 113 -105 135 -7 13 -30 42
-52 64 -22 23 -40 46 -40 51 0 6 -7 9 -14 6 -9 -4 -13 -1 -10 6 2 7 -14 31
-36 55 -22 23 -40 46 -40 52 0 5 -6 13 -14 17 -7 4 -18 18 -25 31 -6 12 -18
22 -26 22 -7 0 -17 9 -20 21 -4 12 -14 29 -23 39 -10 10 -27 31 -39 47 -33 43
-76 96 -93 113 -8 9 -24 28 -35 44 -11 15 -44 52 -72 82 -29 29 -53 58 -53 62
0 5 -14 23 -30 40 -17 18 -30 34 -30 36 0 3 -13 19 -29 36 -16 18 -34 42 -41
54 -6 13 -37 50 -68 83 -32 34 -75 86 -97 117 -31 43 -44 54 -60 50 -16 -4
-17 -3 -5 6 13 9 13 12 -2 21 -10 5 -18 14 -18 19 0 5 -22 32 -50 60 -27 28
-50 54 -50 58 -1 4 -14 23 -30 42 -17 19 -30 38 -30 42 0 4 -10 18 -22 31 -13
13 -43 47 -68 76 -25 29 -51 59 -58 66 -6 8 -12 16 -12 19 0 2 -12 18 -28 35
-58 64 -72 81 -72 88 0 5 -8 16 -18 24 -9 9 -30 33 -47 54 -16 21 -39 49 -50
61 -43 50 -61 72 -80 98 -11 15 -44 52 -73 83 -28 30 -52 58 -52 61 0 4 -10
19 -23 33 -69 81 -93 113 -104 134 -7 13 -34 45 -59 72 -26 26 -58 64 -73 83
-14 19 -34 42 -43 51 -10 9 -18 21 -18 27 0 6 -6 15 -14 19 -7 4 -18 18 -25
31 -6 12 -18 22 -26 22 -8 0 -17 11 -21 24 -3 13 -16 29 -30 36 -13 8 -24 19
-24 27 0 12 -8 24 -57 82 l-22 26 -1 -15832 0 -15833 13000 0 c7150 0 13000 3
13000 6 0 11 -44 68 -72 96 -15 14 -28 29 -28 33 0 7 -13 22 -62 76 -10 10
-18 21 -18 24 0 8 -128 161 -187 223 -29 30 -53 58 -53 62 0 4 -17 26 -37 48
-40 42 -53 59 -81 106 -9 15 -36 46 -59 69 -24 22 -43 47 -43 55 0 8 -6 12
-14 9 -9 -4 -13 -1 -11 6 3 7 -11 30 -31 52 -20 22 -42 48 -50 59 -11 16 -16
17 -29 6 -9 -7 -15 -8 -15 -2 0 6 5 12 11 14 16 5 -7 48 -26 48 -7 0 -17 9
-20 21 -4 12 -14 29 -23 39 -10 10 -27 31 -39 47 -33 43 -76 96 -93 113 -8 9
-24 28 -35 44 -11 15 -44 52 -72 83 -29 30 -53 58 -53 61 0 4 -10 19 -23 33
-66 78 -93 113 -107 135 -8 14 -37 49 -65 78 -27 28 -70 80 -95 113 -34 47
-50 61 -65 58 -11 -3 -14 -2 -7 1 21 10 14 23 -53 89 -36 36 -65 69 -65 73 0
5 -11 22 -25 38 -14 16 -28 37 -31 47 -3 9 -9 17 -14 17 -5 0 -23 20 -41 45
-18 25 -39 43 -45 41 -7 -3 -11 0 -8 7 2 7 -8 26 -24 42 -15 17 -39 46 -52 65
-13 19 -37 47 -52 62 -15 14 -28 29 -28 33 0 7 -13 22 -62 76 -10 10 -18 21
-18 25 0 7 -107 133 -181 213 -32 35 -59 67 -59 71 0 4 -17 26 -37 48 -40 42
-52 59 -81 105 -9 16 -36 49 -59 73 -24 25 -43 50 -43 56 0 5 -7 8 -14 5 -9
-4 -13 -1 -11 6 3 7 -11 30 -31 52 -20 22 -42 48 -50 59 -11 16 -16 17 -29 6
-9 -7 -15 -8 -15 -2 0 6 5 12 11 14 16 5 -7 48 -26 48 -7 0 -17 9 -20 21 -4
12 -14 29 -23 39 -10 10 -27 31 -39 47 -33 43 -76 96 -93 113 -8 9 -24 28 -35
44 -11 15 -44 52 -72 83 -29 30 -53 58 -53 61 0 4 -10 19 -23 33 -66 78 -93
113 -107 135 -8 14 -37 49 -65 78 -27 28 -70 80 -95 113 -35 48 -49 61 -65 57
-16 -4 -17 -3 -5 6 13 9 13 12 -2 21 -10 5 -18 14 -18 19 0 6 -22 32 -50 60
-27 28 -50 54 -50 59 0 4 -11 21 -25 37 -14 16 -28 37 -31 47 -3 9 -9 17 -14
17 -5 0 -23 20 -41 45 -18 25 -39 43 -45 41 -7 -3 -11 0 -8 7 2 7 -8 26 -24
42 -15 17 -39 46 -52 65 -13 19 -37 47 -52 62 -15 14 -28 29 -28 33 0 7 -13
22 -62 76 -10 10 -18 21 -18 25 0 7 -107 133 -181 213 -32 35 -59 67 -59 71 0
4 -17 26 -37 48 -40 42 -52 59 -81 105 -9 16 -36 49 -59 73 -24 25 -43 50 -43
56 0 5 -7 8 -14 5 -9 -4 -13 -1 -10 6 2 7 -14 31 -36 55 -22 23 -40 46 -40 52
0 5 -6 13 -14 17 -7 4 -18 18 -25 31 -6 12 -18 22 -26 22 -7 0 -17 9 -20 21
-4 12 -14 29 -23 39 -10 10 -27 31 -39 47 -33 43 -76 96 -93 113 -8 9 -24 28
-35 44 -11 15 -44 52 -72 83 -29 30 -53 58 -53 62 0 5 -13 22 -30 39 -16 18
-30 34 -30 36 0 3 -13 19 -29 36 -16 18 -34 42 -41 54 -6 13 -37 50 -68 83
-32 34 -75 86 -97 117 -31 43 -44 54 -60 50 -16 -4 -17 -3 -5 6 13 9 13 12 -2
21 -10 5 -18 14 -18 19 0 6 -22 32 -50 60 -27 28 -50 54 -50 58 -1 4 -14 23
-30 42 -17 19 -30 40 -30 47 0 7 -4 13 -9 13 -6 0 -24 20 -42 45 -18 25 -39
43 -45 41 -7 -3 -11 0 -8 7 2 7 -9 26 -26 44 -16 18 -30 34 -30 37 0 2 -12 18
-27 35 -57 61 -73 80 -73 87 0 3 -9 16 -19 28 -60 65 -70 79 -65 87 3 5 211
10 462 11 251 0 535 3 631 5 101 3 171 1 167 -5 -3 -5 1 -9 9 -9 8 0 12 4 10
7 -6 9 569 22 782 18 83 -2 149 0 146 5 -2 4 65 7 149 7 311 -2 2776 57 4873
116 512 14 980 24 1040 20 61 -3 144 -1 185 4 68 9 1101 40 2810 86 553 15
715 16 1260 5 1423 -27 2722 -73 6065 -216 2349 -100 3320 -139 4395 -175
1594 -53 2047 -61 4735 -90 539 -6 1311 -15 1715 -20 3314 -41 6202 -34 8205
20 4058 110 6324 423 6863 948 62 61 117 146 143 219 25 72 25 189 1 259 -111
320 -627 638 -1507 930 -377 125 -858 256 -1295 353 -159 36 -229 58 -502 163
l-318 121 118 65 c64 36 134 75 154 86 28 16 36 26 33 41 -11 48 -36 208 -33
210 2 2 98 15 213 30 1063 134 2223 347 3210 590 282 70 725 188 825 220 25 8
92 28 150 45 149 44 534 168 605 195 33 12 107 39 165 60 130 46 410 155 470
183 25 11 107 48 182 81 529 232 984 532 1207 795 131 155 209 308 262 515 55
215 41 458 -38 643 -103 240 -319 450 -653 635 -31 17 -133 65 -260 121 -55
25 -330 118 -385 131 -22 5 -85 20 -140 34 -135 34 -263 61 -395 82 -19 3 -36
8 -38 10 -2 2 9 23 24 47 27 42 66 110 127 218 16 30 39 71 50 90 11 19 42 78
69 130 28 52 61 113 74 136 30 52 350 694 421 844 51 106 231 498 283 615 12
28 30 68 40 90 10 22 67 153 125 290 59 138 113 264 120 280 99 220 438 1097
464 1200 64 254 45 447 -61 605 -102 154 -325 263 -625 306 -142 21 -489 24
-663 6 -399 -42 -770 -117 -1215 -245 -472 -137 -1078 -366 -1500 -567 -71
-34 -162 -77 -202 -96 -39 -19 -74 -37 -76 -42 -3 -4 171 -33 386 -65 216 -32
395 -62 399 -65 9 -9 60 -259 92 -447 45 -267 84 -616 89 -794 l2 -84 -195
-88 c-107 -48 -220 -99 -250 -112 -107 -48 -329 -148 -625 -281 l-300 -135 -7
-63 c-3 -35 -11 -135 -18 -223 -29 -422 -133 -969 -258 -1360 l-38 -119 336
-330 c184 -182 427 -421 539 -532 l204 -201 -58 -129 c-170 -380 -539 -1044
-580 -1044 -7 0 -145 27 -307 61 -161 33 -356 73 -433 89 -77 16 -270 56 -429
90 -159 33 -292 60 -296 60 -4 0 -45 -46 -91 -103 -194 -238 -484 -539 -715
-744 -139 -122 -334 -279 -345 -275 -5 1 -9 -2 -9 -6 0 -4 -22 -24 -48 -45
-34 -26 -54 -34 -70 -30 -13 3 -22 1 -22 -6 0 -7 4 -9 10 -6 6 3 7 -1 3 -10
-4 -12 -8 -13 -13 -5 -5 8 -9 7 -13 -4 -3 -8 -1 -17 6 -19 8 -3 9 -8 2 -15
-14 -15 -59 7 -63 31 -3 13 3 17 25 17 33 0 62 34 38 44 -8 3 -15 12 -15 21 0
11 -11 15 -40 15 -36 0 -40 2 -40 25 0 41 -19 62 -51 57 -26 -4 -29 -1 -29 23
0 33 -21 55 -54 55 -20 0 -26 5 -26 23 0 27 -32 57 -60 57 -11 0 -20 6 -20 13
0 16 -52 67 -68 67 -7 0 -12 -16 -12 -40 l0 -40 40 0 c39 0 40 -1 40 -36 0
-35 -18 -64 -40 -64 -8 0 -7 -8 4 -25 18 -28 20 -35 7 -35 -5 0 -11 9 -14 20
-3 11 -12 20 -20 20 -20 0 -19 51 2 67 15 11 15 12 -1 18 -10 4 -18 13 -18 21
0 10 -12 14 -40 14 -45 0 -54 -19 -18 -35 13 -6 24 -19 26 -30 3 -19 2 -19
-11 -3 -8 10 -19 18 -26 18 -6 0 -11 5 -11 10 0 6 -6 10 -14 10 -7 0 -19 14
-26 30 -7 17 -19 30 -26 30 -8 0 -14 10 -14 25 0 16 6 25 15 25 8 0 15 3 15 6
0 12 -34 33 -52 34 -27 0 -24 40 3 40 18 0 20 5 18 55 -1 31 -6 58 -10 61 -4
2 -6 -5 -4 -16 3 -13 -1 -20 -12 -20 -9 0 -13 6 -9 15 3 8 2 14 -2 14 -18 -3
-26 2 -14 10 11 7 10 9 -3 14 -9 4 -13 3 -10 -3 3 -6 1 -10 -4 -10 -6 0 -10
-6 -9 -12 2 -8 -6 -12 -22 -10 -15 2 -34 -6 -47 -18 -12 -11 -27 -20 -33 -20
-6 0 -8 -5 -4 -12 5 -7 3 -8 -6 -3 -8 5 -18 1 -27 -10 -7 -11 -13 -15 -13 -9
0 5 -3 5 -8 -1 -4 -5 -28 -21 -54 -34 -26 -14 -44 -29 -41 -34 3 -6 2 -7 -4
-4 -6 4 -55 -19 -109 -49 -98 -55 -344 -177 -417 -208 -44 -18 -39 -26 -67
104 -11 52 -22 105 -25 117 -4 19 14 31 178 112 173 86 355 189 405 228 20 17
21 20 8 38 -12 16 -17 18 -28 7 -11 -11 -10 -14 2 -22 10 -7 11 -10 3 -10 -7
0 -13 -6 -13 -14 0 -8 -7 -16 -15 -20 -8 -3 -15 -1 -15 5 0 5 -11 20 -25 33
-32 30 -32 44 3 48 l27 3 -25 25 -25 25 -3 -23 c-4 -24 -22 -21 -22 4 0 26 27
44 64 44 36 0 36 0 36 -45 0 -32 3 -43 13 -39 7 2 22 -4 32 -16 10 -11 23 -20
28 -20 6 0 2 6 -9 14 -10 8 -16 18 -12 22 5 4 17 -1 28 -11 18 -16 20 -16 26
-1 3 9 11 13 17 9 6 -3 7 -1 3 6 -4 6 -12 9 -17 6 -5 -3 -6 1 -3 9 4 11 0 16
-11 16 -11 0 -15 5 -11 15 3 9 0 15 -9 15 -8 0 -15 5 -15 10 0 6 -13 10 -30
10 -25 0 -30 4 -30 23 0 27 -32 57 -60 57 -11 0 -20 6 -20 13 0 15 -47 61 -70
69 -12 5 -15 -2 -12 -33 5 -47 -10 -64 -64 -72 -39 -6 -42 -5 -54 23 -7 17
-19 30 -26 30 -8 0 -14 10 -14 25 0 16 6 25 15 25 8 0 15 3 15 6 0 12 -34 33
-52 34 -26 0 -24 40 2 40 17 0 20 7 20 40 l0 40 -40 0 -40 0 0 40 0 40 -40 0
-40 0 0 40 0 40 -40 0 c-38 0 -40 2 -40 29 0 17 -5 33 -10 36 -6 4 -8 10 -6
14 3 4 -11 5 -30 3 -31 -4 -34 -2 -34 23 0 33 -21 55 -54 55 -20 0 -26 5 -26
23 0 28 -32 57 -64 57 -19 0 -23 -4 -19 -20 6 -21 -20 -29 -32 -10 -4 6 -1 9
5 8 7 -2 14 4 15 12 2 8 6 23 10 32 4 11 3 18 -5 18 -6 0 -8 -5 -4 -12 6 -9 3
-9 -9 0 -9 8 -22 10 -28 6 -9 -5 -10 -2 -6 9 3 9 2 19 -4 22 -5 4 -8 12 -7 18
1 7 -3 21 -9 32 -6 11 -14 38 -17 59 -4 22 -11 45 -17 53 -6 7 -9 20 -5 28 3
9 2 13 -4 10 -9 -6 -13 11 -13 57 0 10 -4 15 -10 11 -6 -4 -8 0 -4 10 3 9 2
17 -2 19 -4 2 -40 100 -80 218 -40 118 -85 249 -100 291 l-28 75 106 71 c209
140 427 331 584 510 85 99 229 284 224 290 -2 1 -57 -22 -123 -51 -243 -110
-566 -239 -866 -346 l-107 -38 -37 81 c-119 258 -285 549 -421 734 l-83 113
43 37 c154 133 337 352 431 517 153 270 312 792 430 1416 19 102 38 201 40
220 3 19 15 91 25 160 46 288 101 803 117 1091 l7 116 -126 94 c-443 332 -940
533 -1487 601 -148 18 -585 16 -715 -4 -55 -9 -101 -15 -102 -14 -5 4 -56 506
-85 849 -18 207 -36 377 -41 377 -5 0 -56 -26 -115 -59 -717 -395 -1561 -668
-2337 -755 -283 -32 -438 -39 -835 -33 -466 6 -794 33 -1144 93 -48 8 -90 13
-92 11 -4 -3 137 -1687 151 -1812 8 -66 14 -135 20 -225 3 -47 8 -101 10 -120
2 -19 6 -64 9 -100 11 -126 18 -205 22 -245 6 -56 12 -136 19 -235 4 -47 8
-94 10 -106 2 -11 0 -26 -4 -32 -5 -9 -3966 -11 -16342 -10 -15851 3 -16336 4
-16389 21 -101 35 -193 89 -260 157 -122 122 -170 255 -170 472 l0 128 3545 0
c3513 0 3545 0 3597 20 64 24 138 95 167 160 20 44 21 63 20 675 0 575 -1 634
-17 681 -32 92 -100 153 -198 179 -51 13 -466 15 -3593 15 l-3534 0 6 263 c4
144 7 331 7 415 l0 152 3553 0 3554 0 61 31 c69 34 104 71 138 144 l24 50 0
626 c0 704 1 691 -73 775 -22 25 -58 55 -81 67 l-41 22 -3570 5 -3570 5 0
7130 c0 6777 1 7133 18 7194 43 158 156 302 293 373 139 73 -31 68 2181 68
1096 0 1993 2 1993 5 0 3 -16 38 -36 77 -94 186 -172 444 -194 639 -7 57 -14
110 -16 117 -3 9 -57 12 -226 12 -254 0 -275 5 -315 76 -28 48 -29 93 -3 143
32 64 71 81 182 81 l95 0 164 201 164 201 56 146 c31 81 63 161 72 178 l16 32
-90 143 c-114 181 -224 338 -353 503 -56 72 -104 134 -107 139 -5 7 -644 -197
-1101 -352 l-77 -26 -108 107 c-266 261 -570 496 -906 699 l-142 87 3 63 c1
35 16 311 32 613 17 302 29 551 27 552 -11 10 -327 138 -467 188 -177 64 -463
153 -524 163 l-33 5 -299 -413z m-1244 -574 c0 -8 -2 -15 -4 -15 -2 0 -6 7
-10 15 -3 8 -1 15 4 15 6 0 10 -7 10 -15z m240 -400 c0 -8 -2 -15 -4 -15 -2 0
-6 7 -10 15 -3 8 -1 15 4 15 6 0 10 -7 10 -15z m240 -400 c0 -8 -2 -15 -4 -15
-2 0 -6 7 -10 15 -3 8 -1 15 4 15 6 0 10 -7 10 -15z m52 -94 c9 -11 9 -16 0
-19 -7 -2 -12 -17 -12 -33 0 -26 -4 -29 -30 -29 -27 0 -30 3 -30 30 0 27 3 30
30 30 35 0 37 6 10 40 -26 33 -26 50 0 19 11 -13 25 -30 32 -38z m88 -146 c0
-18 -4 -22 -20 -18 -13 3 -20 14 -20 28 0 18 4 22 20 18 13 -3 20 -14 20 -28z
m55 -94 c3 -15 15 -33 25 -41 11 -8 20 -21 20 -29 0 -9 -9 -4 -25 13 -14 15
-25 32 -25 37 0 6 -7 17 -15 25 -8 9 -15 22 -15 31 0 25 28 -3 35 -36z m97
-160 c9 -11 9 -16 0 -19 -7 -2 -12 -17 -12 -33 0 -26 -4 -29 -30 -29 -27 0
-30 3 -30 30 0 27 3 30 30 30 35 0 37 6 10 40 -26 33 -26 50 0 19 11 -13 25
-30 32 -38z m158 -238 c16 -19 12 -43 -8 -43 -11 0 -21 13 -30 40 -17 56 -15
67 8 39 11 -13 24 -29 30 -36z m30 -68 c0 -8 -2 -15 -4 -15 -2 0 -6 7 -10 15
-3 8 -1 15 4 15 6 0 10 -7 10 -15z m52 -94 c9 -11 9 -16 0 -19 -7 -2 -12 -17
-12 -33 0 -26 -4 -29 -30 -29 -27 0 -30 3 -30 30 0 27 3 30 30 30 35 0 37 6
10 40 -26 33 -26 50 0 19 11 -13 25 -30 32 -38z m32 -47 c4 -10 1 -14 -6 -12
-15 5 -23 28 -10 28 5 0 13 -7 16 -16z m47 -84 c5 0 9 -9 9 -19 0 -14 -5 -18
-20 -14 -16 4 -20 13 -19 47 1 39 1 40 11 14 5 -16 14 -28 19 -28z m79 -107
c16 -19 12 -43 -8 -43 -11 0 -21 13 -30 40 -17 56 -15 67 8 39 11 -13 24 -29
30 -36z m30 -68 c0 -8 -2 -15 -4 -15 -2 0 -6 7 -10 15 -3 8 -1 15 4 15 6 0 10
-7 10 -15z m52 -94 c9 -11 9 -16 0 -19 -7 -2 -12 -17 -12 -33 0 -26 -4 -29
-30 -29 -27 0 -30 3 -30 30 0 27 3 30 30 30 35 0 37 6 10 40 -26 33 -26 50 0
19 11 -13 25 -30 32 -38z m32 -47 c4 -10 1 -14 -6 -12 -15 5 -23 28 -10 28 5
0 13 -7 16 -16z m47 -84 c5 0 9 -9 9 -19 0 -14 -5 -18 -20 -14 -16 4 -20 13
-19 47 1 39 1 40 11 14 5 -16 14 -28 19 -28z m79 -107 c16 -19 12 -43 -8 -43
-11 0 -21 13 -30 40 -17 56 -15 67 8 39 11 -13 24 -29 30 -36z m30 -68 c0 -8
-2 -15 -4 -15 -2 0 -6 7 -10 15 -3 8 -1 15 4 15 6 0 10 -7 10 -15z m52 -94 c9
-11 9 -16 0 -19 -7 -2 -12 -17 -12 -33 0 -26 -4 -29 -30 -29 -27 0 -30 3 -30
30 0 27 3 30 30 30 35 0 37 6 10 40 -26 33 -26 50 0 19 11 -13 25 -30 32 -38z
m32 -47 c4 -10 1 -14 -6 -12 -15 5 -23 28 -10 28 5 0 13 -7 16 -16z m47 -84
c5 0 9 -9 9 -19 0 -14 -5 -18 -20 -14 -16 4 -20 13 -19 47 1 39 1 40 11 14 5
-16 14 -28 19 -28z m79 -107 c17 -20 11 -43 -10 -43 -13 0 -20 -7 -20 -20 0
-13 -7 -20 -20 -20 -13 0 -20 7 -20 20 0 14 7 20 21 20 18 0 20 4 15 26 -4 15
-9 38 -13 53 l-6 26 21 -25 c12 -14 26 -30 32 -37z m28 -70 c-2 -10 -11 -18
-21 -19 -14 -2 -14 -1 -1 3 8 3 13 11 10 19 -3 8 -1 14 5 14 6 0 9 -8 7 -17z
m-19958 -8343 c0 -5 -2 -10 -4 -10 -3 0 -8 5 -11 10 -3 6 -1 10 4 10 6 0 11
-4 11 -10z m340 -320 c0 -5 -2 -10 -4 -10 -3 0 -8 5 -11 10 -3 6 -1 10 4 10 6
0 11 -4 11 -10z m720 -880 c0 -5 -2 -10 -4 -10 -3 0 -8 5 -11 10 -3 6 -1 10 4
10 6 0 11 -4 11 -10z m330 -480 c0 -5 -2 -10 -4 -10 -3 0 -8 5 -11 10 -3 6 -1
10 4 10 6 0 11 -4 11 -10z m450 -560 c0 -5 -2 -10 -4 -10 -3 0 -8 5 -11 10 -3
6 -1 10 4 10 6 0 11 -4 11 -10z m340 -320 c0 -5 -2 -10 -4 -10 -3 0 -8 5 -11
10 -3 6 -1 10 4 10 6 0 11 -4 11 -10z m720 -880 c0 -5 -2 -10 -4 -10 -3 0 -8
5 -11 10 -3 6 -1 10 4 10 6 0 11 -4 11 -10z m1120 -1360 c0 -5 -2 -10 -4 -10
-3 0 -8 5 -11 10 -3 6 -1 10 4 10 6 0 11 -4 11 -10z m720 -880 c0 -5 -2 -10
-4 -10 -3 0 -8 5 -11 10 -3 6 -1 10 4 10 6 0 11 -4 11 -10z m2373 -1073 c-3
-5 -14 1 -25 12 -10 12 -16 26 -12 32 4 8 13 4 25 -12 9 -13 15 -27 12 -32z
m-1253 -287 c0 -5 -2 -10 -4 -10 -3 0 -8 5 -11 10 -3 6 -1 10 4 10 6 0 11 -4
11 -10z m1627 -365 c0 -8 -4 -12 -9 -9 -5 3 -6 10 -3 15 9 13 12 11 12 -6z
m18443 -266 c69 -15 129 -62 163 -128 l27 -55 0 -425 c0 -280 -4 -440 -11
-466 -15 -54 -100 -139 -154 -154 -29 -8 -1153 -11 -4040 -11 l-4000 0 -55 21
c-66 25 -102 57 -133 118 -22 46 -22 50 -22 486 0 410 1 442 19 475 37 71 102
124 171 141 51 12 7976 11 8035 -2z m-12150 -659 c0 -6 -47 -10 -120 -10 -73
0 -120 4 -120 10 0 6 47 10 120 10 73 0 120 -4 120 -10z m80 -30 c0 -6 -59 -9
-162 -8 l-163 2 125 6 c69 3 142 7 163 8 20 1 37 -2 37 -8z m-2080 -52 c0 -4
37 -9 83 -10 80 -2 80 -2 17 -6 -70 -3 -130 4 -130 17 0 4 7 8 15 8 8 0 15 -4
15 -9z m-3572 -15 c-2 -10 3 -17 10 -15 6 1 12 -2 12 -8 0 -16 -15 -12 -34 9
-16 18 -14 23 12 30 2 1 2 -7 0 -16z m3519 1 c2 -6 -3 -11 -10 -11 -8 0 -14 6
-14 14 0 15 19 12 24 -3z m-3479 -56 c7 -7 12 -17 12 -22 0 -6 -5 -3 -11 7 -6
9 -14 15 -20 12 -5 -4 -9 -1 -9 4 0 14 13 14 28 -1z m3496 4 c3 -5 -1 -9 -9
-9 -8 0 -12 4 -9 9 3 4 7 8 9 8 2 0 6 -4 9 -8z m-3443 -79 c13 -16 12 -17 -3
-4 -17 13 -22 21 -14 21 2 0 10 -8 17 -17z m3 -42 c2 -3 -6 -6 -18 -6 -13 0
-23 5 -23 11 0 11 34 7 41 -5z m68 -90 c-4 -10 -1 -12 8 -6 9 5 11 4 6 -4 -4
-6 -11 -9 -16 -6 -5 3 -10 0 -13 -7 -2 -7 -2 -3 -1 9 2 12 -2 24 -9 26 -6 3
-2 4 9 4 15 -1 20 -6 16 -16z m39 -38 c13 -16 12 -17 -3 -4 -17 13 -22 21 -14
21 2 0 10 -8 17 -17z m-29 -57 c-4 -7 -8 -5 -10 7 -2 9 -10 17 -18 17 -8 0
-12 5 -9 11 5 7 13 4 26 -7 10 -9 15 -22 11 -28z m-27 4 c3 -5 1 -10 -4 -10
-6 0 -11 5 -11 10 0 6 2 10 4 10 3 0 8 -4 11 -10z m65 0 c0 -5 -2 -10 -4 -10
-3 0 -8 5 -11 10 -3 6 -1 10 4 10 6 0 11 -4 11 -10z m40 -36 c0 -8 -19 -13
-24 -6 -3 5 1 9 9 9 8 0 15 -2 15 -3z m69 -91 c-6 -7 -15 -10 -20 -7 -13 8 -3
21 15 21 12 0 13 -4 5 -14z m132 -190 c13 -16 12 -17 -3 -4 -10 7 -18 15 -18
17 0 8 8 3 21 -13z m29 -29 c0 -8 -19 -13 -24 -6 -3 5 1 9 9 9 8 0 15 -2 15
-3z m5070 -193 c363 -85 791 -169 1190 -235 325 -54 841 -126 902 -126 27 0
30 -3 24 -22 -3 -13 -14 -62 -24 -110 -16 -84 -18 -88 -43 -88 -15 0 -148 16
-295 35 -562 74 -1265 201 -1864 339 -266 62 -287 68 -312 96 -41 44 -40 110
2 152 29 29 34 30 93 25 34 -3 181 -33 327 -66z m-6060 39 c0 -5 -2 -10 -4
-10 -3 0 -8 5 -11 10 -3 6 -1 10 4 10 6 0 11 -4 11 -10z m1074 -56 c3 -8 2
-12 -4 -9 -6 3 -10 10 -10 16 0 14 7 11 14 -7z m84 -19 c-3 -3 -9 2 -12 12 -6
14 -5 15 5 6 7 -7 10 -15 7 -18z m172 -259 c0 -2 -8 -10 -17 -17 -16 -13 -17
-12 -4 4 13 16 21 21 21 13z m-10 -42 c0 -8 -19 -13 -24 -6 -3 5 1 9 9 9 8 0
15 -2 15 -3z m65 -54 c-3 -5 -12 -10 -18 -10 -7 0 -6 4 3 10 19 12 23 12 15 0z
m72 -85 c0 -8 -4 -12 -9 -9 -5 3 -6 10 -3 15 9 13 12 11 12 -6z m23 -19 c0 -2
-8 -10 -17 -17 -16 -13 -17 -12 -4 4 13 16 21 21 21 13z m112 -143 c-6 -2 -10
-9 -7 -13 3 -5 0 -12 -6 -16 -8 -5 -9 -3 -4 6 6 10 3 12 -11 7 -18 -7 -18 -7
0 8 11 8 25 15 30 14 6 0 5 -3 -2 -6z m158 -244 c6 -11 7 -19 2 -19 -6 0 -12
9 -15 21 -3 11 -15 23 -26 26 -11 3 -22 12 -25 20 -8 20 51 -23 64 -48z
m16536 -46 c52 -28 111 -95 124 -142 15 -53 13 -863 -2 -912 -15 -51 -69 -114
-122 -142 l-41 -22 -3590 -5 c-3449 -5 -3591 -6 -3623 -23 -33 -18 -34 -18
-28 0 22 74 129 1140 126 1266 0 4 1601 6 3558 5 l3557 -3 41 -22z m-7601
-287 c8 -44 26 -164 40 -266 13 -102 31 -207 39 -235 7 -27 21 -77 30 -110 38
-133 30 -412 -19 -730 -47 -302 -64 -340 -235 -533 l-80 -91 0 -66 c0 -59 2
-66 23 -74 12 -5 108 -41 212 -80 296 -110 410 -154 542 -210 66 -28 123 -51
126 -51 5 0 71 -30 217 -97 30 -14 87 -39 125 -56 74 -31 502 -246 595 -298
129 -73 253 -147 360 -217 63 -41 153 -98 200 -125 284 -167 500 -337 783
-616 355 -349 654 -716 952 -1166 426 -644 724 -1274 864 -1826 61 -240 76
-347 76 -559 0 -161 -3 -196 -23 -268 -48 -176 -115 -286 -259 -422 -244 -231
-642 -453 -1233 -686 -239 -94 -769 -271 -1065 -355 -121 -34 -221 -63 -222
-63 -1 -1 -23 -121 -48 -266 -30 -175 -54 -282 -69 -316 -39 -85 -120 -162
-209 -199 -29 -12 -37 -13 -31 -3 5 10 4 11 -7 1 -18 -18 -32 -16 -57 7 -11
11 -24 16 -27 11 -3 -6 2 -14 11 -19 11 -6 13 -11 5 -16 -6 -4 -11 -2 -11 4 0
6 -5 8 -10 5 -5 -3 -10 -1 -10 5 0 6 -4 8 -10 5 -5 -3 -10 -1 -10 5 0 6 -8 14
-17 17 -10 4 -31 20 -48 35 -16 15 -36 26 -42 23 -7 -2 -12 -1 -10 4 2 8 -93
101 -104 101 -4 0 -20 12 -37 28 -17 15 -45 38 -62 52 -65 51 -116 93 -168
137 -29 26 -62 53 -75 62 -25 17 -165 130 -218 175 -19 17 -52 45 -73 61 -21
17 -44 36 -51 43 -8 6 -17 12 -22 12 -4 0 -14 9 -21 20 -7 11 -19 20 -26 20
-8 0 -16 3 -18 8 -1 4 -30 30 -63 57 -33 28 -61 53 -63 58 -2 4 -10 7 -18 7
-8 0 -14 4 -14 8 0 5 -18 21 -40 38 -38 27 -53 40 -129 106 -17 15 -44 34 -61
43 -16 8 -30 20 -30 26 0 5 -8 13 -17 16 -10 4 -37 25 -60 47 -48 47 -55 52
-103 86 -19 13 -51 39 -70 57 -19 17 -46 38 -60 45 -14 7 -42 30 -63 51 -21
20 -42 37 -47 37 -5 0 -13 6 -17 13 -6 11 -119 104 -198 165 -5 4 -38 31 -72
61 -38 32 -66 50 -74 45 -7 -4 -10 -3 -6 3 4 6 -17 29 -46 51 -28 22 -61 48
-72 58 -11 11 -38 32 -59 48 -22 16 -61 48 -86 70 -26 23 -62 52 -80 66 -18
14 -40 33 -49 43 -8 9 -20 17 -26 17 -5 0 -28 17 -50 37 -65 61 -125 104 -135
98 -6 -3 -7 1 -4 9 4 11 0 16 -10 16 -9 0 -16 4 -16 9 0 5 -24 27 -52 49 -29
22 -63 49 -75 61 -12 12 -25 21 -28 21 -4 0 -12 6 -20 13 -7 6 -32 28 -55 47
-23 19 -59 50 -79 67 -20 18 -39 33 -42 33 -4 0 -20 12 -37 28 -17 15 -45 38
-62 52 -58 44 -105 85 -108 93 -2 4 -8 7 -14 7 -6 0 -19 11 -30 25 -11 14 -26
25 -34 25 -8 0 -14 6 -14 13 0 8 -10 18 -22 24 -13 6 -42 26 -64 44 -23 19
-56 45 -74 59 -18 14 -55 45 -82 70 -28 25 -57 49 -65 54 -9 4 -23 16 -33 25
-30 29 -60 51 -68 51 -4 0 -27 19 -52 42 -25 23 -65 57 -90 76 -25 20 -46 39
-48 44 -2 4 -10 8 -17 8 -7 0 -15 4 -17 9 -4 11 -125 111 -135 111 -4 0 -25
18 -47 40 -21 22 -43 40 -49 40 -6 0 -22 11 -36 24 -107 99 -121 111 -171 146
-19 14 -50 38 -68 55 -19 16 -42 35 -52 40 -10 6 -40 29 -67 52 -26 23 -64 56
-83 73 -19 16 -66 53 -103 82 -38 29 -90 72 -115 95 -39 35 -43 43 -27 44 11
1 2 5 -20 8 -25 4 -41 12 -43 22 -3 15 236 17 2860 23 1927 5 2882 4 2922 -3
153 -27 280 -132 330 -272 l15 -44 1 71 c1 171 -112 329 -274 384 -59 20 -81
20 -3206 20 -2903 0 -3150 -1 -3196 -17 -113 -38 -198 -115 -251 -229 -26 -54
-28 -70 -30 -198 -3 -140 -3 -142 142 -975 79 -460 151 -872 159 -916 9 -44
18 -102 21 -129 3 -27 7 -51 9 -55 2 -3 7 -28 10 -56 4 -27 41 -245 82 -483
42 -239 73 -436 70 -439 -13 -13 -635 163 -852 242 -54 20 -125 45 -157 56
-79 27 -377 144 -443 174 -30 14 -105 46 -167 72 -312 131 -813 403 -1008 549
l-90 67 -102 -17 c-448 -73 -859 -267 -1163 -549 l-71 -66 -29 27 c-363 327
-762 760 -1163 1262 -1098 1374 -2180 3259 -3081 5370 -164 383 -460 1127
-460 1155 0 16 342 153 603 241 654 221 1305 369 2202 500 185 27 207 30 277
32 26 1 53 9 61 17 8 8 18 11 21 7 11 -10 56 -14 56 -4 0 5 23 7 50 4 30 -2
50 1 50 7 0 6 23 8 55 6 30 -2 53 0 51 3 -2 4 22 5 55 4 34 -2 59 0 59 6 0 6
21 8 51 5 27 -3 58 -2 67 2 9 4 45 6 80 5 34 -1 62 3 62 7 0 5 34 8 75 7 41
-1 77 2 81 7 3 5 10 7 15 3 11 -7 242 -6 279 1 14 3 205 8 425 11 1152 18
2446 -87 3639 -296 676 -118 1310 -260 1615 -360 35 -12 65 -20 66 -18 2 2 -3
30 -11 63 -39 168 0 324 94 374 45 24 182 6 182 -24 0 -8 16 -153 35 -322 68
-585 80 -643 174 -831 109 -217 311 -469 311 -387 0 8 -18 55 -40 103 -63 141
-73 199 -67 395 6 191 -2 268 -41 376 -24 67 -27 89 -26 191 2 127 20 215 74
344 43 102 120 210 178 247 64 40 79 38 93 -13 16 -63 96 -255 132 -318 117
-209 266 -353 424 -413 50 -19 77 -22 193 -21 143 1 224 16 350 68 135 54 278
168 364 290 94 131 169 323 201 507 9 52 19 101 22 109 7 21 30 -46 48 -144z
m-9480 46 c-3 -3 -11 0 -18 7 -9 10 -8 11 6 5 10 -3 15 -9 12 -12z m322 3 c0
-11 -4 -12 -14 -4 -7 6 -13 13 -13 15 0 2 6 4 13 4 8 0 14 -7 14 -15z m-167
-4 c0 -6 -4 -13 -10 -16 -5 -3 -10 1 -10 9 0 9 5 16 10 16 6 0 10 -4 10 -9z
m-174 -16 c4 -8 11 -12 17 -8 6 4 7 1 2 -7 -6 -10 -11 -10 -20 3 -7 9 -15 14
-18 10 -4 -3 -7 -1 -7 5 0 17 20 15 26 -3z m134 10 c0 -2 -10 -9 -22 -15 -22
-11 -22 -10 -4 4 21 17 26 19 26 11z m13611 -4630 c298 -689 698 -1654 913
-2205 60 -151 114 -288 121 -305 7 -16 50 -127 95 -245 45 -118 86 -224 91
-235 5 -11 13 -32 19 -47 l10 -28 -104 0 c-58 0 -110 -2 -118 -5 -9 -3 -26 30
-56 113 -24 64 -47 126 -52 137 -5 11 -64 160 -131 330 -203 520 -694 1722
-784 1920 -7 17 -61 143 -120 280 -58 138 -114 268 -124 290 -10 22 -31 69
-46 105 -15 36 -40 93 -56 128 -16 35 -29 65 -29 68 0 3 54 3 121 2 l120 -3
130 -300z m36583 -1570 c3 -10 19 -15 46 -15 l40 0 0 -45 c0 -50 -12 -57 -35
-22 -8 13 -27 29 -41 36 -14 6 -22 16 -19 21 4 6 1 17 -5 25 -7 9 -8 15 -2 15
5 0 12 -7 16 -15z m166 -125 c0 -27 -3 -30 -30 -30 -27 0 -30 3 -30 30 0 27 3
30 30 30 27 0 30 -3 30 -30z m-66 -32 c8 -6 7 -11 -4 -18 -11 -7 -3 -8 28 -4
40 6 42 5 42 -19 0 -21 -4 -25 -17 -20 -12 5 -14 3 -9 -8 4 -8 -1 -5 -11 7
-10 12 -25 24 -34 27 -17 6 -31 55 -21 72 4 5 8 1 10 -10 3 -11 9 -23 16 -27z
m146 -48 c0 -27 -3 -30 -30 -30 -36 0 -38 -9 -6 -43 15 -17 31 -24 40 -21 11
4 16 0 16 -15 0 -12 -6 -21 -14 -21 -19 0 -93 93 -78 98 7 2 12 17 12 33 0 26
4 29 30 29 27 0 30 -3 30 -30z m-2 -68 c2 -7 -2 -10 -12 -6 -9 3 -16 11 -16
16 0 13 23 5 28 -10z m82 -2 c0 -16 -7 -20 -30 -20 -23 0 -30 4 -30 20 0 16 7
20 30 20 23 0 30 -4 30 -20z m-43999 -17 c13 -16 12 -17 -3 -4 -17 13 -22 21
-14 21 2 0 10 -8 17 -17z m44029 -34 c0 -5 -7 -9 -15 -9 -8 0 -15 -9 -15 -20
0 -13 7 -20 20 -20 13 0 20 7 20 20 0 13 7 20 20 20 13 0 20 -7 20 -20 0 -13
-7 -20 -20 -20 -13 0 -20 -7 -20 -20 0 -13 7 -20 20 -20 11 0 20 7 20 15 0 9
6 12 15 9 8 -4 15 -10 15 -15 0 -5 -7 -9 -15 -9 -8 0 -15 -9 -15 -20 0 -13 7
-20 19 -20 12 0 20 -9 23 -23 4 -20 1 -23 -19 -19 -14 3 -23 11 -23 22 0 10
-9 20 -20 23 -11 3 -20 12 -20 21 0 9 -8 16 -20 16 -11 0 -20 5 -20 11 0 7
-11 22 -25 35 -14 13 -25 26 -25 29 0 3 11 5 25 5 15 0 25 6 25 15 0 9 6 12
15 9 8 -4 15 -10 15 -15z m370 -285 c0 -35 -18 -64 -40 -64 -8 0 -7 -8 4 -25
19 -28 20 -35 6 -35 -5 0 -10 7 -10 16 0 9 -8 18 -19 21 -23 6 -25 53 -3 69
10 7 11 13 4 18 -17 10 -42 -5 -42 -25 0 -22 -15 -25 -27 -5 -4 7 -15 16 -23
19 -8 3 -1 6 15 6 18 1 36 9 45 21 10 14 26 20 52 20 37 0 38 -1 38 -36z m413
-361 c-7 -3 -13 -13 -13 -24 0 -12 -7 -19 -20 -19 -13 0 -20 -7 -20 -20 0 -13
7 -20 20 -20 11 0 20 7 20 15 0 9 6 12 15 9 8 -4 15 -10 15 -15 0 -5 -7 -9
-15 -9 -8 0 -15 -9 -15 -20 0 -13 7 -20 19 -20 12 0 20 -9 23 -23 4 -20 1 -23
-19 -19 -14 3 -23 11 -23 23 0 11 -7 19 -16 19 -9 0 -18 9 -21 20 -3 11 -14
20 -24 20 -11 0 -19 7 -19 16 0 9 -5 12 -12 8 -7 -4 -8 -3 -4 4 4 7 18 12 32
12 17 0 24 6 24 18 0 25 6 30 38 29 15 0 21 -2 15 -4z m387 -389 c0 -71 10
-90 51 -96 16 -2 25 -10 27 -27 2 -13 12 -33 23 -44 10 -12 19 -25 19 -30 0
-4 9 -5 20 -2 16 5 20 2 20 -14 0 -27 -26 -27 -40 -1 -6 11 -16 20 -23 20 -7
1 -29 23 -50 50 -21 28 -45 50 -53 50 -17 0 -74 53 -74 69 0 5 12 11 28 13
l27 3 -25 25 -25 25 -3 -23 c-4 -24 -22 -21 -22 4 0 26 24 43 63 44 l37 0 0
-66z m80 -44 c0 -27 -3 -30 -30 -30 -27 0 -30 3 -30 30 0 27 3 30 30 30 27 0
30 -3 30 -30z m80 -80 c0 -27 -3 -30 -30 -30 -27 0 -30 3 -30 30 0 27 3 30 30
30 27 0 30 -3 30 -30z m86 -147 c1 -7 2 -14 4 -15 7 -10 6 -38 -2 -38 -6 0 -7
7 -4 16 3 8 2 12 -4 9 -9 -5 -50 28 -50 41 0 11 55 -2 56 -13z m-43765 -20
c13 -16 12 -17 -3 -4 -17 13 -22 21 -14 21 2 0 10 -8 17 -17z m43803 -68 c6
-38 6 -39 -7 -15 -7 14 -11 33 -9 43 6 23 8 20 16 -28z m12 -89 c0 -14 -5 -21
-9 -17 -4 4 -5 15 -1 24 9 24 12 21 10 -7z m-13625 -742 c56 -26 111 -80 141
-137 29 -57 37 -201 14 -278 -18 -65 -70 -129 -134 -167 l-47 -27 -4235 -3
-4235 -2 -63 31 c-46 22 -73 44 -95 76 -47 66 -55 97 -56 213 0 82 4 114 18
146 38 83 109 142 198 163 22 5 1815 8 4243 8 l4205 -2 46 -21z m-28910 -141
c13 -16 12 -17 -3 -4 -17 13 -22 21 -14 21 2 0 10 -8 17 -17z m9756 -3129 c-3
-3 -12 -4 -19 -1 -8 3 -5 6 6 6 11 1 17 -2 13 -5z m-9517 -204 c0 -5 -2 -10
-4 -10 -3 0 -8 5 -11 10 -3 6 -1 10 4 10 6 0 11 -4 11 -10z m330 -480 c0 -5
-2 -10 -4 -10 -3 0 -8 5 -11 10 -3 6 -1 10 4 10 6 0 11 -4 11 -10z m450 -560
c0 -5 -2 -10 -4 -10 -3 0 -8 5 -11 10 -3 6 -1 10 4 10 6 0 11 -4 11 -10z m340
-320 c0 -5 -2 -10 -4 -10 -3 0 -8 5 -11 10 -3 6 -1 10 4 10 6 0 11 -4 11 -10z
m720 -880 c0 -5 -2 -10 -4 -10 -3 0 -8 5 -11 10 -3 6 -1 10 4 10 6 0 11 -4 11
-10z m1120 -1360 c0 -5 -2 -10 -4 -10 -3 0 -8 5 -11 10 -3 6 -1 10 4 10 6 0
11 -4 11 -10z m720 -880 c0 -5 -2 -10 -4 -10 -3 0 -8 5 -11 10 -3 6 -1 10 4
10 6 0 11 -4 11 -10z m1120 -1360 c0 -5 -2 -10 -4 -10 -3 0 -8 5 -11 10 -3 6
-1 10 4 10 6 0 11 -4 11 -10z"/>
<path d="M25315 21729 c-176 -25 -417 -139 -543 -257 -29 -27 -33 -36 -30 -74
3 -39 8 -47 68 -95 286 -231 635 -293 946 -169 155 61 333 180 362 239 21 44
4 76 -77 138 -139 107 -314 185 -480 214 -91 16 -153 17 -246 4z m190 -198
c130 -74 75 -276 -75 -276 -108 0 -180 113 -134 210 20 43 44 64 91 80 42 15
73 11 118 -14z m-366 -43 c-12 -43 -12 -140 1 -172 6 -18 6 -26 -1 -26 -16 0
-140 67 -173 93 l-29 23 49 31 c58 37 144 83 155 83 4 0 3 -15 -2 -32z m681
-19 c36 -20 74 -44 85 -53 l20 -15 -20 -15 c-22 -16 -169 -96 -178 -96 -2 0
-2 38 0 84 4 50 1 97 -5 116 -11 30 -10 31 11 24 12 -3 51 -24 87 -45z"/>
<path d="M18824 21561 c-52 -24 -90 -73 -103 -133 -35 -155 99 -279 252 -234
56 16 93 49 122 105 26 51 17 146 -17 199 -50 76 -164 104 -254 63z"/>
<path d="M19743 21559 c-121 -60 -139 -250 -32 -332 125 -94 300 -25 324 128
26 158 -145 277 -292 204z"/>
<path d="M20674 21561 c-136 -62 -146 -276 -17 -347 110 -61 232 -25 288 85
26 51 17 146 -17 199 -50 76 -164 104 -254 63z"/>
<path d="M21592 21559 c-120 -60 -138 -251 -31 -332 125 -94 300 -25 324 128
26 158 -146 277 -293 204z"/>
<path d="M22524 21561 c-74 -33 -122 -128 -108 -209 26 -152 199 -218 323
-125 75 57 93 188 39 271 -50 76 -164 104 -254 63z"/>
<path d="M23442 21559 c-60 -30 -95 -85 -100 -158 -12 -169 151 -270 301 -187
106 57 125 229 35 313 -59 55 -161 69 -236 32z"/>
<path d="M25563 19112 c-44 -7 -53 -36 -53 -179 l0 -133 -54 0 -54 0 -3 83
c-5 102 -32 152 -101 186 -41 20 -60 21 -279 21 -206 0 -239 -3 -274 -19 -85
-39 -105 -88 -105 -255 0 -135 7 -166 48 -209 55 -58 69 -62 294 -65 262 -5
307 3 365 64 l43 44 340 0 c327 0 341 1 360 20 18 18 20 33 20 190 0 157 -2
172 -20 190 -20 20 -74 27 -96 12 -26 -17 -34 -56 -34 -156 0 -64 -4 -106 -10
-106 -6 0 -10 34 -10 83 0 105 -6 124 -42 143 -24 12 -36 13 -64 4 -40 -13
-43 -23 -46 -140 l-3 -85 -60 0 -60 0 -3 135 c-2 103 -6 138 -18 151 -17 19
-47 26 -81 21z m-734 -208 c32 -40 29 -126 -4 -159 -31 -32 -58 -32 -84 1 -46
59 -16 184 44 184 14 0 32 -11 44 -26z"/>
<path d="M19755 19026 c-70 -31 -115 -102 -115 -183 1 -164 172 -252 317 -164
87 54 106 208 36 292 -52 61 -164 87 -238 55z"/>
<path d="M20674 19021 c-139 -63 -146 -275 -12 -351 33 -19 57 -25 103 -24 88
1 140 34 180 113 26 51 17 146 -17 199 -50 76 -164 104 -254 63z"/>
<path d="M21605 19026 c-70 -31 -115 -102 -115 -183 1 -123 112 -219 229 -198
192 35 231 297 56 376 -47 22 -127 24 -170 5z"/>
<path d="M22524 19021 c-139 -63 -146 -275 -12 -351 52 -30 144 -33 194 -7
137 71 138 290 2 356 -55 26 -129 27 -184 2z"/>
<path d="M23455 19026 c-40 -17 -84 -63 -101 -103 -33 -77 -5 -188 57 -236
124 -94 296 -27 324 125 9 50 -17 137 -52 170 -57 54 -160 74 -228 44z"/>
<path d="M16400 12410 c0 -6 7 -10 15 -10 8 0 15 2 15 4 0 2 -7 6 -15 10 -8 3
-15 1 -15 -4z"/>
<path d="M17680 11370 c0 -6 7 -10 15 -10 8 0 15 2 15 4 0 2 -7 6 -15 10 -8 3
-15 1 -15 -4z"/>
<path d="M19360 10010 c0 -6 7 -10 15 -10 8 0 15 2 15 4 0 2 -7 6 -15 10 -8 3
-15 1 -15 -4z"/>
<path d="M18480 40858 c1 -27 20 -55 40 -58 30 -5 40 1 40 20 0 13 7 20 20 20
13 0 20 7 20 20 0 22 -35 28 -43 8 -4 -10 -6 -10 -6 0 -1 7 -15 12 -36 12 -30
0 -35 -3 -35 -22z"/>
<path d="M18676 40497 c3 -10 9 -15 12 -12 3 3 0 11 -7 18 -10 9 -11 8 -5 -6z"/>
<path d="M19200 39658 c1 -33 23 -58 54 -58 21 0 26 5 26 24 0 44 -10 56 -46
56 -29 0 -34 -4 -34 -22z"/>
<path d="M25160 38575 c-145 -42 -330 -120 -438 -184 -107 -64 -230 -153 -273
-197 l-33 -34 317 0 316 0 11 43 c29 114 91 242 159 327 61 77 64 80 60 80 -2
-1 -56 -16 -119 -35z"/>
<path d="M26565 38528 c66 -88 116 -186 146 -290 l23 -78 310 0 310 0 -44 38
c-189 164 -435 296 -694 373 -54 16 -100 29 -102 29 -3 0 20 -33 51 -72z"/>
<path d="M25649 38493 c-118 -59 -239 -196 -274 -310 l-6 -23 185 0 186 0 0
185 c0 102 -4 185 -9 185 -4 0 -42 -17 -82 -37z"/>
<path d="M26050 38345 l0 -185 181 0 180 0 -6 23 c-40 136 -179 280 -328 336
l-27 11 0 -185z"/>
<path d="M24150 37839 c0 -8 9 -65 20 -125 100 -554 438 -1011 932 -1263 164
-83 329 -136 532 -170 l106 -17 0 451 0 452 -62 17 c-96 26 -255 108 -329 169
-127 106 -233 271 -277 432 l-19 70 -452 0 c-404 0 -451 -2 -451 -16z"/>
<path d="M25370 37847 c0 -8 14 -42 32 -77 45 -92 153 -201 241 -245 38 -19
76 -35 83 -35 11 0 14 34 14 179 l0 178 -67 6 c-38 4 -121 7 -185 7 -92 0
-118 -3 -118 -13z"/>
<path d="M26050 37841 c-6 -11 -10 -90 -10 -185 0 -146 2 -166 16 -166 36 0
162 78 219 135 57 57 135 183 135 219 0 14 -21 16 -175 16 -162 0 -175 -1
-185 -19z"/>
<path d="M26725 37845 c-2 -5 -9 -32 -15 -60 -16 -65 -79 -200 -121 -262 -105
-154 -277 -276 -470 -333 l-66 -20 -6 -307 c-4 -170 -7 -372 -7 -450 0 -167
-18 -153 153 -123 622 106 1143 553 1351 1158 36 105 86 323 86 377 l0 30
-451 0 c-293 0 -453 -4 -454 -10z"/>
<path d="M42115 36439 c-827 -247 -1785 -478 -2565 -619 -1421 -256 -2320
-285 -3755 -119 -878 101 -1945 290 -2939 520 -240 56 -290 59 -345 20 -17
-13 -39 -37 -49 -54 -16 -30 -17 -175 -20 -2407 -2 -1509 1 -2461 7 -2610 17
-389 59 -666 161 -1065 64 -250 117 -413 215 -661 306 -770 823 -1591 1501
-2379 420 -488 989 -1051 1539 -1523 461 -395 1073 -861 1509 -1147 l117 -77
162 107 c1127 751 2304 1799 3122 2780 943 1133 1530 2294 1705 3375 57 358
53 145 57 3089 3 2696 3 2704 -17 2746 -27 56 -80 85 -151 84 -35 0 -125 -22
-254 -60z m-8469 -1058 c343 -113 822 -235 1299 -330 325 -65 854 -152 1015
-168 30 -3 56 -7 58 -8 2 -2 -2 -14 -8 -27 -11 -22 -11 -22 9 2 18 22 22 24
42 12 11 -8 18 -9 14 -3 -3 6 -1 11 4 11 6 0 11 -4 11 -9 0 -5 11 -8 24 -5 23
4 40 -9 41 -31 1 -5 7 -9 14 -7 7 1 9 -2 6 -8 -5 -8 -13 -6 -26 6 -10 9 -16
21 -13 25 3 5 0 9 -5 9 -6 0 -11 -5 -11 -11 0 -5 -4 -7 -10 -4 -6 4 -7 -1 -3
-11 4 -12 2 -15 -8 -12 -8 3 -13 11 -11 17 1 6 -3 11 -8 11 -6 0 -8 -11 -4
-25 4 -16 2 -25 -6 -25 -7 0 -10 7 -6 15 3 8 1 15 -5 15 -6 0 -8 4 -5 9 3 5
-1 11 -9 15 -9 3 -15 0 -15 -9 0 -8 5 -15 10 -15 18 0 11 -20 -7 -21 -15 0
-15 -2 2 -8 19 -8 19 -8 -2 -19 -12 -7 -33 -12 -47 -12 -17 0 -26 -5 -26 -16
0 -20 -19 -36 -77 -66 -24 -12 -43 -25 -43 -30 0 -4 -8 -8 -19 -8 -10 0 -24
-7 -31 -15 -7 -9 -20 -13 -28 -10 -8 3 -26 -4 -39 -17 -18 -17 -33 -21 -73
-19 -30 1 -50 -2 -50 -9 0 -5 6 -10 13 -10 9 0 9 -2 -1 -9 -8 -4 -13 -14 -12
-22 6 -38 -1 -49 -27 -49 -31 0 -73 -23 -114 -62 -20 -18 -35 -24 -57 -20 -29
4 -52 -12 -37 -26 4 -4 10 -1 12 6 3 6 12 12 21 12 13 0 12 -4 -7 -19 -13 -10
-33 -16 -47 -13 -18 3 -24 0 -24 -13 0 -21 -18 -36 -77 -67 -24 -12 -43 -25
-43 -30 0 -4 -8 -8 -19 -8 -10 0 -24 -7 -31 -15 -7 -9 -20 -13 -28 -10 -8 3
-26 -4 -39 -17 -18 -17 -33 -21 -69 -19 -25 1 -56 6 -70 11 -18 7 -24 6 -24
-5 0 -9 6 -12 16 -8 9 3 20 0 24 -7 5 -7 22 -13 39 -13 19 0 28 -4 24 -11 -4
-6 2 -4 12 4 15 12 17 12 10 1 -6 -11 -4 -13 9 -8 10 4 15 3 11 -3 -3 -6 1
-11 9 -11 19 -2 26 -4 46 -12 94 -41 792 -216 1125 -282 854 -171 1404 -191
2160 -79 642 95 1359 269 2185 529 251 79 280 86 333 81 97 -10 185 -67 230
-151 l22 -40 0 -1665 c0 -1755 1 -1723 -46 -1990 -136 -777 -590 -1614 -1328
-2445 -546 -616 -1400 -1352 -2086 -1800 -66 -43 -132 -87 -147 -97 l-28 -18
-82 54 c-310 201 -808 591 -1178 921 -270 241 -639 610 -860 862 -734 835
-1191 1677 -1340 2468 -56 298 -53 210 -57 1949 l-4 1610 -45 62 c-44 63 -274
353 -318 402 -140 158 -297 324 -425 449 l-155 152 12 57 c26 123 134 230 269
264 66 16 190 4 289 -29z m2001 -847 c-3 -3 -12 -4 -19 -1 -8 3 -5 6 6 6 11 1
17 -2 13 -5z m-2549 -1446 c-2 -6 4 -20 14 -30 10 -10 15 -24 11 -34 -4 -11
-2 -15 4 -11 5 3 10 0 10 -8 0 -8 -4 -15 -9 -15 -5 0 -6 -5 -3 -10 5 -8 11 -8
20 0 10 8 13 7 11 -4 -4 -32 -39 -42 -64 -19 -14 14 -15 143 0 143 5 0 8 -5 6
-12z m102 -182 c0 -2 -7 -7 -16 -10 -8 -3 -12 -2 -9 4 6 10 25 14 25 6z"/>
<path d="M35920 34780 c0 -13 7 -20 20 -20 13 0 20 7 20 20 0 13 -7 20 -20 20
-13 0 -20 -7 -20 -20z"/>
<path d="M35840 34720 c0 -24 22 -35 48 -25 16 7 15 8 -3 16 -16 8 -15 8 8 4
20 -4 27 -1 27 10 0 11 -11 15 -40 15 -34 0 -40 -3 -40 -20z"/>
<path d="M35680 34630 c0 -13 50 -13 70 0 11 7 4 10 -27 10 -24 0 -43 -4 -43
-10z"/>
<path d="M35440 34480 c0 -21 30 -27 64 -14 33 13 17 34 -24 34 -33 0 -40 -3
-40 -20z"/>
<path d="M35280 34380 c0 -13 7 -20 20 -20 13 0 20 7 20 20 0 13 -7 20 -20 20
-13 0 -20 -7 -20 -20z"/>
<path d="M35200 34320 c0 -24 22 -35 48 -25 16 7 15 8 -3 16 -16 8 -15 8 8 4
20 -4 27 -1 27 10 0 11 -11 15 -40 15 -34 0 -40 -3 -40 -20z"/>
<path d="M34867 34230 c12 -13 76 -22 68 -10 -3 5 -13 7 -23 5 -9 -1 -26 2
-37 8 -16 7 -18 7 -8 -3z"/>
<path d="M35040 34230 c0 -13 50 -13 70 0 11 7 4 10 -27 10 -24 0 -43 -4 -43
-10z"/>
<path d="M40313 32996 c-380 -238 -745 -551 -1133 -971 -493 -534 -875 -1043
-1413 -1886 l-79 -123 -60 110 c-291 524 -598 935 -992 1329 -270 269 -472
434 -515 420 -57 -18 -19 -117 593 -1562 91 -216 166 -395 166 -397 0 -3 11
-29 24 -58 13 -29 31 -71 40 -93 143 -343 680 -1565 688 -1565 3 0 23 44 44
98 140 369 390 1002 467 1182 282 666 869 1721 1310 2355 265 381 479 639 779
938 131 131 238 243 238 250 0 18 -21 37 -39 37 -9 0 -62 -29 -118 -64z"/>
<path d="M24820 36088 c0 -189 13 -250 69 -324 43 -57 123 -108 193 -123 28
-7 178 -11 360 -11 279 0 310 2 304 16 -3 9 -6 82 -6 163 l0 147 -107 13
c-252 31 -539 125 -742 245 -34 20 -64 36 -67 36 -2 0 -4 -73 -4 -162z"/>
<path d="M26803 36169 c-206 -104 -471 -183 -680 -204 l-71 -7 -4 -146 c-2
-81 -8 -155 -12 -164 -8 -17 10 -18 296 -18 328 0 381 6 456 54 50 31 100 89
126 145 17 39 21 71 24 201 6 232 21 217 -135 139z"/>
<path d="M28465 34479 c-224 -28 -442 -138 -542 -274 -63 -85 -85 -153 -81
-250 6 -144 82 -262 232 -360 l76 -49 0 -131 c0 -111 3 -135 20 -162 38 -62
41 -63 441 -63 l361 0 39 39 39 39 0 140 0 140 57 32 c78 44 174 139 211 208
17 32 36 87 43 124 42 227 -160 455 -477 538 -142 37 -278 46 -419 29z"/>
<path d="M23200 34465 c-127 -17 -295 -59 -400 -98 l-85 -32 -3 -77 -3 -77 33
-5 c214 -32 343 -65 487 -123 530 -212 953 -700 1086 -1250 9 -40 20 -73 24
-73 14 0 167 95 226 142 168 129 292 309 336 488 17 70 17 229 0 299 -101 410
-554 728 -1149 806 -137 18 -419 18 -552 0z"/>
<path d="M22333 33860 c-97 -14 -203 -41 -217 -56 -21 -21 -54 -129 -66 -216
-22 -159 27 -342 132 -495 l29 -43 37 19 c21 11 63 27 95 36 l57 16 0 375 c0
206 -3 373 -7 373 -5 -1 -31 -5 -60 -9z"/>
<path d="M22700 33502 c0 -301 3 -372 14 -381 7 -6 38 -18 67 -27 234 -69 444
-286 509 -526 l13 -48 373 0 c320 0 374 2 374 14 0 8 -9 63 -20 121 -99 513
-448 927 -946 1126 -85 33 -241 73 -328 84 l-56 7 0 -370z"/>
<path d="M48036 33855 c-47 -25 -55 -44 -56 -122 0 -40 -3 -73 -7 -73 -5 0
-33 16 -63 35 -69 45 -110 46 -151 6 -21 -21 -29 -39 -29 -64 0 -55 7 -65 86
-118 41 -27 74 -51 74 -53 0 -3 -29 -25 -65 -50 -96 -69 -113 -103 -81 -165
31 -59 95 -65 169 -16 28 19 55 35 59 35 5 0 8 -31 8 -69 0 -84 22 -118 82
-128 73 -11 118 47 118 152 l0 55 53 -34 c74 -49 124 -52 162 -10 19 20 25 38
25 69 0 48 -22 73 -112 130 -27 17 -48 32 -48 35 0 3 32 27 71 53 96 67 114
119 60 179 -42 47 -90 45 -159 -5 l-52 -37 0 48 c0 26 -5 64 -11 85 -16 59
-81 90 -133 62z"/>
<path d="M49432 33855 c-41 -18 -62 -65 -62 -140 0 -30 -2 -55 -5 -55 -3 0
-29 16 -58 35 -65 44 -105 46 -147 8 -32 -29 -40 -65 -26 -111 4 -12 40 -45
82 -72 41 -28 74 -53 74 -55 0 -3 -31 -25 -69 -50 -37 -26 -73 -57 -80 -71
-20 -44 -13 -83 18 -115 41 -41 84 -39 151 6 29 19 53 35 55 35 1 0 5 -32 7
-71 3 -66 6 -74 37 -101 29 -26 39 -30 75 -25 65 9 86 41 86 133 0 41 2 74 5
74 3 0 30 -16 60 -36 71 -48 118 -49 157 -5 32 36 37 84 12 119 -9 13 -45 41
-80 63 -35 23 -64 44 -64 48 0 4 31 29 69 55 41 28 74 60 81 76 26 63 -21 135
-88 134 -26 0 -53 -11 -92 -37 l-55 -37 -6 72 c-7 90 -12 102 -54 122 -40 19
-41 19 -83 1z"/>
<path d="M22710 32655 l0 -135 135 0 c74 0 135 4 135 8 0 14 -70 126 -98 156
-32 34 -139 106 -159 106 -10 0 -13 -29 -13 -135z"/>
<path d="M400 32736 c0 -9 5 -16 10 -16 6 0 10 4 10 9 0 6 -4 13 -10 16 -5 3
-10 -1 -10 -9z"/>
<path d="M22712 32158 c3 -47 7 -55 37 -75 19 -13 52 -28 73 -35 36 -11 40
-10 67 16 16 16 44 55 61 87 l31 59 -136 0 -136 0 3 -52z"/>
<path d="M23285 32153 c-9 -32 -23 -70 -31 -85 l-15 -28 393 2 393 3 12 70 c6
39 12 76 12 83 1 9 -80 12 -373 12 l-375 0 -16 -57z"/>
<path d="M25930 31664 c-358 -48 -661 -185 -871 -394 -239 -238 -299 -539
-162 -815 75 -152 262 -333 430 -419 l51 -26 4 -237 c3 -221 5 -241 25 -278
28 -53 65 -89 117 -115 41 -19 58 -20 663 -20 682 0 656 -2 728 62 20 17 46
50 58 72 21 38 22 57 25 277 l3 236 87 52 c233 138 396 334 448 541 22 84 22
226 0 310 -116 450 -688 774 -1359 769 -78 -1 -189 -7 -247 -15z"/>
<path d="M2240 30496 c0 -9 5 -16 10 -16 6 0 10 4 10 9 0 6 -4 13 -10 16 -5 3
-10 -1 -10 -9z"/>
<path d="M45026 30125 c-108 -30 -235 -117 -302 -206 -22 -30 -73 -146 -83
-189 -16 -71 -14 -873 3 -935 29 -112 101 -228 173 -282 21 -15 40 -31 43 -35
10 -13 120 -60 173 -74 64 -17 865 -20 937 -3 53 12 162 63 199 93 104 84 176
197 201 316 7 38 10 169 8 414 l-3 359 -147 -157 -148 -158 0 -200 c0 -225 -4
-242 -72 -310 -70 -70 -64 -69 -517 -66 l-406 3 -45 30 c-24 17 -58 51 -75 75
l-30 45 -5 325 c-3 207 -9 334 -16 350 -17 38 -7 95 30 169 37 73 61 98 121
130 38 20 52 21 438 21 l398 0 49 -25 c30 -15 63 -43 81 -68 17 -23 32 -42 34
-42 8 0 205 217 205 227 0 23 -103 111 -175 150 -104 55 -135 58 -596 57 -323
-1 -436 -4 -473 -14z"/>
<path d="M47451 29732 c-113 -57 -113 -220 0 -287 34 -20 54 -20 2601 -23
l2568 -2 5 22 c16 68 55 273 55 289 0 18 -71 19 -2597 19 -2454 0 -2600 -1
-2632 -18z"/>
<path d="M23445 29214 c-291 -40 -512 -170 -603 -352 -34 -70 -37 -83 -37
-161 0 -78 3 -93 36 -161 44 -90 125 -176 210 -223 l59 -32 0 -123 c0 -138 10
-173 59 -215 l33 -27 361 0 c335 0 364 1 390 19 56 36 62 55 67 206 5 127 7
140 25 150 107 56 205 151 248 241 29 63 32 78 32 164 0 87 -3 101 -33 164
-96 203 -367 341 -687 351 -71 2 -143 2 -160 -1z"/>
<path d="M47465 29100 c-56 -23 -97 -86 -97 -148 0 -79 36 -132 109 -158 59
-21 3892 -21 3952 1 136 48 147 237 18 299 -32 15 -198 16 -1999 15 -1079 0
-1972 -4 -1983 -9z"/>
<path d="M56908 28820 c-84 -9 -284 -46 -299 -56 -4 -2 35 -66 87 -141 52 -75
128 -189 170 -253 l75 -117 157 -6 c165 -5 293 -30 397 -76 l47 -21 96 69
c109 76 328 220 414 272 32 19 58 36 58 39 0 10 -172 101 -276 145 -276 118
-639 175 -926 145z"/>
<path d="M4080 28256 c0 -9 5 -16 10 -16 6 0 10 4 10 9 0 6 -4 13 -10 16 -5 3
-10 -1 -10 -9z"/>
<path d="M45060 27249 c-30 -5 -93 -27 -139 -49 -157 -75 -270 -220 -305 -393
-22 -107 -23 -797 -1 -902 35 -168 148 -316 295 -388 125 -62 167 -67 595 -67
428 0 470 5 595 67 95 46 194 142 240 232 63 126 63 125 67 501 3 190 3 369 1
398 l-3 54 -172 -185 -171 -184 -4 -189 c-3 -186 -3 -190 -31 -236 -18 -31
-44 -57 -75 -75 l-47 -28 -400 0 -400 0 -47 28 c-31 18 -57 44 -75 75 l-28 47
-3 285 c-2 282 -3 286 -27 331 -14 26 -25 62 -25 80 0 41 33 117 54 125 9 3
25 21 37 40 11 19 42 47 67 62 l47 27 400 0 400 0 47 -27 c25 -15 56 -44 68
-63 12 -19 23 -35 25 -35 1 0 58 59 126 131 l124 131 -64 60 c-77 72 -196 133
-291 148 -79 12 -802 11 -880 -1z"/>
<path d="M5200 26896 c0 -9 5 -16 10 -16 6 0 10 4 10 9 0 6 -4 13 -10 16 -5 3
-10 -1 -10 -9z"/>
<path d="M61683 26855 c0 -8 4 -12 9 -9 5 3 6 10 3 15 -9 13 -12 11 -12 -6z"/>
<path d="M47463 26825 c-60 -26 -93 -76 -97 -146 -2 -37 4 -51 37 -94 21 -27
50 -55 65 -62 21 -9 515 -12 2143 -13 l2116 0 7 103 c4 56 9 130 12 165 l6 62
-2128 0 c-1786 -1 -2134 -3 -2161 -15z"/>
<path d="M61500 26791 c0 -6 4 -12 8 -15 5 -3 9 1 9 9 0 8 -4 15 -9 15 -4 0
-8 -4 -8 -9z"/>
<path d="M61543 26785 c0 -8 4 -12 9 -9 5 3 6 10 3 15 -9 13 -12 11 -12 -6z"/>
<path d="M61446 26728 c3 -4 -6 -8 -20 -8 -14 0 -28 -5 -31 -10 -5 -8 -12 -7
-22 1 -12 10 -16 10 -24 -2 -12 -19 -11 -29 1 -29 6 0 10 5 10 11 0 6 7 9 15
5 15 -5 80 18 89 32 3 5 -1 9 -9 9 -8 0 -12 -4 -9 -9z"/>
<path d="M61310 26700 c0 -5 4 -10 9 -10 6 0 13 5 16 10 3 6 -1 10 -9 10 -9 0
-16 -4 -16 -10z"/>
<path d="M61226 26683 c-6 -14 -5 -15 5 -6 7 7 10 15 7 18 -3 3 -9 -2 -12 -12z"/>
<path d="M61274 26688 c-4 -7 -3 -8 4 -4 7 4 12 2 12 -3 0 -10 -21 -16 -42
-12 -5 0 -8 -4 -8 -10 0 -7 -12 -9 -35 -5 -19 4 -82 2 -140 -5 -93 -10 -105
-14 -105 -31 0 -16 6 -19 43 -16 26 2 41 8 40 15 -2 7 4 10 12 7 8 -4 15 -1
15 5 0 6 6 11 12 11 7 0 2 -10 -12 -23 -20 -19 -45 -25 -130 -35 -58 -7 -132
-11 -165 -10 -50 1 -53 2 -17 5 28 3 42 9 42 19 0 10 12 14 40 14 62 0 47 16
-21 24 -93 9 -99 8 -99 -14 0 -17 -7 -20 -40 -20 -22 0 -40 -4 -40 -10 0 -6
-40 -10 -99 -10 -54 0 -127 -3 -162 -7 l-64 -7 50 -7 c28 -4 102 -5 165 -3
l115 3 -125 -15 c-69 -8 -197 -21 -285 -30 -88 -8 -205 -19 -260 -24 -124 -12
-135 -12 -135 0 0 6 31 10 73 11 39 0 95 4 122 9 l50 7 -45 3 -45 3 45 7 45 7
-42 1 c-24 1 -43 7 -43 12 0 6 -18 10 -40 10 -33 0 -40 -3 -40 -20 0 -18 -7
-20 -80 -20 -44 0 -80 -4 -80 -8 0 -5 -108 -15 -240 -22 -132 -7 -240 -17
-240 -22 0 -4 -18 -8 -40 -8 -22 0 -40 5 -40 10 0 6 -33 10 -80 10 -59 0 -80
3 -80 13 0 19 -78 16 -83 -3 -3 -12 5 -14 40 -11 38 3 43 1 43 -18 0 -18 -6
-21 -39 -21 -36 0 -58 -17 -53 -42 1 -5 -2 -8 -7 -8 -5 0 -12 -7 -15 -16 -4
-11 -2 -15 7 -11 8 3 14 -1 14 -8 0 -7 -6 -11 -13 -8 -14 5 -28 -32 -18 -48 4
-7 3 -9 -3 -6 -5 3 -18 -17 -28 -46 -30 -86 -108 -247 -163 -334 -112 -181
-282 -373 -436 -493 -63 -49 -68 -56 -63 -84 3 -17 13 -74 22 -126 36 -203 5
-337 -124 -531 -122 -184 -355 -435 -609 -653 -51 -44 -92 -85 -92 -91 0 -7
24 -173 54 -371 30 -197 62 -419 72 -493 l18 -133 65 6 c62 7 318 51 352 62
12 3 98 -95 315 -358 264 -322 301 -363 325 -362 59 3 408 144 631 254 119 59
127 64 122 89 -5 30 -104 895 -104 910 0 6 35 34 78 62 93 63 218 156 290 216
35 30 53 40 56 31 2 -7 34 -290 70 -628 37 -338 68 -624 71 -635 3 -14 26 -28
82 -49 460 -173 976 -447 1387 -734 60 -43 114 -76 120 -74 6 2 301 155 656
339 355 185 653 339 662 344 12 6 25 2 46 -16 17 -14 33 -25 37 -25 9 0 365
312 580 509 231 212 669 645 840 831 954 1039 1282 1795 993 2288 -83 142
-218 238 -398 282 -110 28 -361 37 -520 21 -676 -71 -1617 -407 -2949 -1052
-123 -60 -226 -109 -229 -109 -3 0 -18 14 -33 31 -15 17 -54 58 -86 92 -32 34
-88 94 -125 134 l-68 72 40 111 c84 235 163 565 195 823 14 107 15 130 3 144
-8 11 -9 14 -1 10 8 -5 15 1 19 19 4 17 9 22 14 14 5 -9 13 -9 25 -2 17 9 17
10 -4 21 -24 13 -20 31 7 31 15 0 15 -2 2 -10 -8 -5 -12 -10 -7 -11 4 -1 10
-2 15 -3 4 -1 13 -5 20 -9 7 -5 12 -4 12 2 0 6 3 10 8 10 21 -4 42 2 38 10 -4
5 2 7 12 4 10 -2 24 2 31 11 7 8 19 12 27 9 8 -3 14 0 14 7 0 6 5 8 10 5 14
-9 13 8 -2 23 -15 15 -25 15 -34 0z m-1514 -220 c0 -4 -26 -8 -57 -8 -60 0
-184 -11 -413 -36 -74 -8 -162 -14 -195 -13 l-60 2 50 7 c28 5 84 9 125 11
l75 3 -80 7 c-65 5 -57 6 38 3 73 -2 117 0 117 6 0 6 49 11 123 12 78 0 106 3
77 7 -28 4 2 7 78 7 67 0 122 -3 122 -8z"/>
<path d="M59928 26633 c7 -3 16 -2 19 1 4 3 -2 6 -13 5 -11 0 -14 -3 -6 -6z"/>
<path d="M59020 26581 c0 -6 4 -12 8 -15 5 -3 9 1 9 9 0 8 -4 15 -9 15 -4 0
-8 -4 -8 -9z"/>
<path d="M58990 26571 c0 -7 -4 -10 -8 -7 -5 3 -9 -2 -9 -10 0 -13 2 -13 16 0
8 9 12 19 8 22 -4 4 -7 2 -7 -5z"/>
<path d="M60338 26543 c12 -2 32 -2 45 0 12 2 2 4 -23 4 -25 0 -35 -2 -22 -4z"/>
<path d="M57905 26481 c-3 -5 -2 -12 3 -15 5 -3 9 1 9 9 0 17 -3 19 -12 6z"/>
<path d="M57983 26465 c0 -8 4 -12 9 -9 5 3 6 10 3 15 -9 13 -12 11 -12 -6z"/>
<path d="M57896 26442 c-10 -16 9 -30 21 -17 10 10 9 14 -2 19 -8 3 -16 2 -19
-2z"/>
<path d="M57888 26380 c3 -8 11 -23 18 -34 12 -17 13 -16 28 12 21 40 21 39
-18 38 -25 -1 -32 -5 -28 -16z m52 5 c0 -2 -10 -9 -22 -15 -22 -11 -22 -10 -4
4 21 17 26 19 26 11z"/>
<path d="M48165 26035 l165 -165 663 0 c681 0 871 6 1252 41 404 37 725 87
1022 159 155 38 413 116 413 126 0 2 -828 4 -1840 4 l-1840 0 165 -165z"/>
<path d="M5920 26016 c0 -9 5 -16 10 -16 6 0 10 4 10 9 0 6 -4 13 -10 16 -5 3
-10 -1 -10 -9z"/>
<path d="M6084 25809 c-4 -7 -3 -9 4 -5 5 3 12 0 15 -6 2 -7 7 -10 11 -7 4 3
0 12 -8 18 -11 9 -16 9 -22 0z"/>
<path d="M6327 25075 c-4 -8 -3 -16 1 -19 4 -3 9 4 9 15 2 23 -3 25 -10 4z"/>
<path d="M6324 24987 c-8 -21 2 -35 16 -21 5 5 6 15 0 24 -8 12 -10 12 -16 -3z"/>
<path d="M6381 24974 c0 -11 3 -14 6 -6 3 7 2 16 -1 19 -3 4 -6 -2 -5 -13z"/>
<path d="M6433 24833 c4 -3 2 -11 -3 -18 -7 -8 -6 -12 3 -12 7 0 14 9 14 19 1
10 -3 18 -9 18 -6 0 -8 -3 -5 -7z"/>
<path d="M6493 24688 c-6 -7 -10 -21 -10 -30 0 -17 9 -18 9 -1 0 4 4 16 9 26
11 20 6 23 -8 5z"/>
<path d="M25320 24680 c-25 -25 -26 -72 -2 -93 17 -16 112 -17 1160 -17 l1141
0 15 22 c22 32 20 55 -9 83 l-24 25 -1131 0 c-1117 0 -1130 0 -1150 -20z"/>
<path d="M6591 24454 c0 -11 3 -14 6 -6 3 7 2 16 -1 19 -3 4 -6 -2 -5 -13z"/>
<path d="M6560 24424 c0 -8 5 -12 10 -9 6 3 10 10 10 16 0 5 -4 9 -10 9 -5 0
-10 -7 -10 -16z"/>
<path d="M25320 24390 c-25 -25 -26 -72 -2 -93 17 -16 112 -17 1155 -17 1124
0 1137 0 1157 20 27 27 25 62 -3 88 l-23 22 -1132 0 c-1119 0 -1132 0 -1152
-20z"/>
<path d="M6671 24294 c0 -11 3 -14 6 -6 3 7 2 16 -1 19 -3 4 -6 -2 -5 -13z"/>
<path d="M6640 24264 c0 -8 5 -12 10 -9 6 3 10 10 10 16 0 5 -4 9 -10 9 -5 0
-10 -7 -10 -16z"/>
<path d="M6736 24205 c-3 -8 -1 -15 4 -15 6 0 10 7 10 15 0 8 -2 15 -4 15 -2
0 -6 -7 -10 -15z"/>
<path d="M6885 23919 c-4 -6 -5 -12 -2 -15 2 -3 7 2 10 11 7 17 1 20 -8 4z"/>
<path d="M6970 23761 c0 -5 7 -12 16 -15 14 -5 15 -4 4 9 -14 17 -20 19 -20 6z"/>
<path d="M6966 23725 c4 -8 8 -15 10 -15 2 0 4 7 4 15 0 8 -4 15 -10 15 -5 0
-7 -7 -4 -15z"/>
<path d="M6964 23688 c-3 -4 2 -8 10 -8 8 0 17 4 20 8 3 5 -2 9 -10 9 -8 0
-17 -4 -20 -9z"/>
<path d="M7046 23535 c-3 -8 -1 -15 4 -15 6 0 10 7 10 15 0 8 -2 15 -4 15 -2
0 -6 -7 -10 -15z"/>
<path d="M7243 23295 c0 -8 7 -15 15 -15 12 0 12 3 2 15 -7 8 -13 15 -15 15
-1 0 -2 -7 -2 -15z"/>
<path d="M7364 23078 c-4 -7 -4 -10 1 -6 4 4 14 0 22 -10 13 -15 13 -15 3 6
-12 25 -16 27 -26 10z"/>
<path d="M7367 23039 c4 -13 8 -18 11 -10 2 7 -1 18 -6 23 -8 8 -9 4 -5 -13z"/>
<path d="M7391 23014 c0 -11 3 -14 6 -6 3 7 2 16 -1 19 -3 4 -6 -2 -5 -13z"/>
<path d="M7360 22984 c0 -8 5 -12 10 -9 6 3 10 10 10 16 0 5 -4 9 -10 9 -5 0
-10 -7 -10 -16z"/>
<path d="M7521 22805 c0 -18 28 -61 29 -44 0 8 -7 24 -15 35 -8 10 -14 15 -14
9z"/>
<path d="M7690 22490 c0 -6 7 -10 15 -10 8 0 15 2 15 4 0 2 -7 6 -15 10 -8 3
-15 1 -15 -4z"/>
<path d="M7791 22374 c0 -11 3 -14 6 -6 3 7 2 16 -1 19 -3 4 -6 -2 -5 -13z"/>
<path d="M7760 22344 c0 -8 5 -12 10 -9 6 3 10 10 10 16 0 5 -4 9 -10 9 -5 0
-10 -7 -10 -16z"/>
<path d="M7921 22205 c0 -5 6 -19 14 -29 8 -11 15 -15 15 -10 0 6 -7 19 -15
30 -8 10 -14 15 -14 9z"/>
<path d="M7921 22104 c0 -11 3 -14 6 -6 3 7 2 16 -1 19 -3 4 -6 -2 -5 -13z"/>
<path d="M8015 22051 c-3 -5 -1 -12 4 -15 5 -3 11 1 15 9 6 16 -9 21 -19 6z"/>
<path d="M8035 22021 c-3 -5 -2 -12 3 -15 5 -3 9 1 9 9 0 17 -3 19 -12 6z"/>
<path d="M31000 21915 l0 -85 65 0 65 0 0 85 0 85 -65 0 -65 0 0 -85z"/>
<path d="M31290 21915 l0 -85 888 0 887 1 45 77 c25 42 47 80 48 85 2 4 -417
7 -932 7 l-936 0 0 -85z"/>
<path d="M33298 21946 c-24 -30 -51 -69 -61 -85 l-18 -31 695 0 c400 0 696 4
696 9 0 7 -67 100 -106 148 -9 11 -119 13 -587 13 l-577 0 -42 -54z"/>
<path d="M34716 21923 c24 -43 44 -81 44 -85 0 -5 27 -8 61 -8 56 0 64 -3 95
-34 l34 -34 0 -826 0 -826 250 0 250 0 0 914 c0 503 -3 922 -6 931 -16 42 -46
45 -418 45 l-354 0 44 -77z"/>
<path d="M8092 21916 c-1 -14 4 -23 13 -23 11 0 12 4 4 13 -7 8 -6 13 3 16 8
3 8 6 -3 10 -10 4 -15 -1 -17 -16z"/>
<path d="M8123 21865 c0 -8 4 -15 9 -15 4 0 8 4 8 9 0 6 -4 12 -8 15 -5 3 -9
-1 -9 -9z"/>
<path d="M16800 21710 c0 -6 -60 -10 -160 -10 -100 0 -160 -4 -160 -10 0 -7
167 -10 480 -10 473 0 480 0 480 20 0 20 -7 20 -320 20 -207 0 -320 -4 -320
-10z m560 -10 c0 -6 -47 -10 -120 -10 -73 0 -120 4 -120 10 0 6 47 10 120 10
73 0 120 -4 120 -10z"/>
<path d="M8257 21689 c7 -7 15 -10 18 -7 3 3 -2 9 -12 12 -14 6 -15 5 -6 -5z"/>
<path d="M8251 21663 c-1 -17 16 -25 25 -12 4 7 3 9 -4 5 -5 -3 -13 0 -15 6
-4 9 -6 10 -6 1z"/>
<path d="M8275 21631 c-7 -12 12 -24 25 -16 11 7 4 25 -10 25 -5 0 -11 -4 -15
-9z"/>
<path d="M14400 21630 c0 -6 -60 -10 -160 -10 -100 0 -160 -4 -160 -10 0 -7
153 -9 443 -8 243 1 387 4 320 5 -68 2 -123 8 -123 13 0 5 55 11 123 13 67 1
-5 4 -160 5 -184 1 -283 -2 -283 -8z"/>
<path d="M11999 21558 c0 -2 -2 -12 -3 -23 -2 -20 2 -20 283 -15 226 4 252 5
124 8 -95 1 -163 7 -163 12 0 5 69 11 163 13 104 1 62 3 -120 5 -156 1 -283 1
-284 0z"/>
<path d="M15280 21506 c0 -5 -116 -6 -280 -2 -278 7 -280 7 -280 -13 0 -20 2
-20 393 -15 215 3 469 1 562 -4 156 -8 137 -9 -232 -10 -269 -1 -403 -5 -403
-12 0 -7 195 -10 603 -9 331 1 593 5 582 10 -11 4 36 8 112 8 160 1 207 -12
73 -20 l-95 -5 123 -2 c109 -2 148 6 110 21 -7 3 47 6 121 6 74 1 132 3 129 6
-3 3 -180 5 -394 5 -455 0 -804 9 -804 21 0 5 125 10 278 10 152 1 291 5 307
9 17 5 -180 8 -437 7 -268 -1 -468 -6 -468 -11z m823 -53 c-35 -2 -91 -2 -125
0 -35 2 -7 3 62 3 69 0 97 -1 63 -3z"/>
<path d="M16235 21490 c8 -12 261 -12 290 0 12 5 -40 9 -138 9 -103 1 -156 -2
-152 -9z"/>
<path d="M16618 21493 c34 -2 90 -2 125 0 34 2 6 3 -63 3 -69 0 -97 -1 -62 -3z"/>
<path d="M15978 21483 c34 -2 90 -2 125 0 34 2 6 3 -63 3 -69 0 -97 -1 -62 -3z"/>
<path d="M8406 21458 c3 -5 10 -6 15 -3 13 9 11 12 -6 12 -8 0 -12 -4 -9 -9z"/>
<path d="M14973 21443 c9 -2 23 -2 30 0 6 3 -1 5 -18 5 -16 0 -22 -2 -12 -5z"/>
<path d="M12240 21422 c0 -16 10 -20 55 -25 76 -8 825 4 825 13 0 4 19 7 43 7
332 -1 597 5 597 15 0 8 -117 9 -437 2 -489 -10 -827 -10 -980 0 -97 6 -103 5
-103 -12z"/>
<path d="M14083 21423 c-174 -3 -243 -7 -243 -15 0 -8 48 -9 182 -5 99 4 225
7 280 7 59 0 98 4 98 10 0 6 -17 9 -37 8 -21 -2 -147 -4 -280 -5z"/>
<path d="M8427 21406 c-4 -10 -1 -13 8 -9 8 3 12 9 9 14 -7 12 -11 11 -17 -5z"/>
<path d="M13640 21400 c79 -5 28 -6 -160 -5 -231 2 -250 1 -120 -5 209 -10
1040 -12 1040 -2 0 4 -127 7 -282 7 -156 1 -353 3 -438 6 -108 4 -120 4 -40
-1z"/>
<path d="M12843 21383 c-178 -2 -283 -7 -283 -13 0 -13 871 -12 891 1 9 5 -42
9 -127 9 -78 0 -154 1 -170 3 -16 2 -156 2 -311 0z"/>
<path d="M13563 21363 c37 -2 97 -2 135 0 37 2 6 3 -68 3 -74 0 -105 -1 -67
-3z"/>
<path d="M14338 21363 c12 -2 32 -2 45 0 12 2 2 4 -23 4 -25 0 -35 -2 -22 -4z"/>
<path d="M8490 21346 c0 -2 7 -7 16 -10 8 -3 12 -2 9 4 -6 10 -25 14 -25 6z"/>
<path d="M34950 19850 l0 -70 250 0 250 0 0 70 0 70 -250 0 -250 0 0 -70z"/>
<path d="M59535 13180 c3 -5 8 -10 11 -10 2 0 4 5 4 10 0 6 -5 10 -11 10 -5 0
-7 -4 -4 -10z"/>
<path d="M60458 12483 c7 -3 16 -2 19 1 4 3 -2 6 -13 5 -11 0 -14 -3 -6 -6z"/>
<path d="M60160 12435 c0 -9 5 -15 11 -13 6 2 11 8 11 13 0 5 -5 11 -11 13 -6
2 -11 -4 -11 -13z"/>
<path d="M60520 12276 c0 -2 8 -10 18 -17 15 -13 16 -12 3 4 -13 16 -21 21
-21 13z"/>
<path d="M60880 11795 c0 -9 5 -15 11 -13 6 2 11 8 11 13 0 5 -5 11 -11 13 -6
2 -11 -4 -11 -13z"/>
<path d="M61370 11506 c0 -2 7 -7 16 -10 8 -3 12 -2 9 4 -6 10 -25 14 -25 6z"/>
<path d="M21230 6970 c-13 -8 -12 -10 3 -10 9 0 17 5 17 10 0 12 -1 12 -20 0z"/>
<path d="M21760 6736 c0 -9 5 -16 10 -16 6 0 10 4 10 9 0 6 -4 13 -10 16 -5 3
-10 -1 -10 -9z"/>
<path d="M22880 5376 c0 -9 5 -16 10 -16 6 0 10 4 10 9 0 6 -4 13 -10 16 -5 3
-10 -1 -10 -9z"/>
<path d="M23600 4496 c0 -9 5 -16 10 -16 6 0 10 4 10 9 0 6 -4 13 -10 16 -5 3
-10 -1 -10 -9z"/>
<path d="M24720 3136 c0 -9 5 -16 10 -16 6 0 10 4 10 9 0 6 -4 13 -10 16 -5 3
-10 -1 -10 -9z"/>
<path d="M25440 2256 c0 -9 5 -16 10 -16 6 0 10 4 10 9 0 6 -4 13 -10 16 -5 3
-10 -1 -10 -9z"/>
<path d="M26560 896 c0 -9 5 -16 10 -16 6 0 10 4 10 9 0 6 -4 13 -10 16 -5 3
-10 -1 -10 -9z"/>
</g>
</svg>
